<svg width="60" height="57" viewBox="0 0 60 57" fill="none" xmlns="http://www.w3.org/2000/svg">
<path d="M26.9386 1.94025C28.1484 -0.646748 31.8516 -0.646748 33.0614 1.94025L39.4095 15.5156C39.9013 16.5673 40.9055 17.2919 42.0647 17.4314L57.0267 19.2323C59.8779 19.5755 61.0223 23.0733 58.9187 25.0154L47.8801 35.2063C47.0249 35.9958 46.6413 37.1683 46.8659 38.3063L49.7648 52.9946C50.3172 55.7937 47.3212 57.9554 44.8114 56.5687L31.641 49.2917C30.6207 48.7279 29.3793 48.7279 28.359 49.2917L15.1886 56.5687C12.6788 57.9554 9.6828 55.7937 10.2352 52.9946L13.1341 38.3063C13.3587 37.1683 12.9751 35.9958 12.1199 35.2063L1.08131 25.0154C-1.02227 23.0733 0.122105 19.5755 2.97334 19.2323L17.9353 17.4314C19.0945 17.2919 20.0987 16.5673 20.5905 15.5156L26.9386 1.94025Z" fill="#FFC702"/>
</svg>
