<svg width="60" height="56" viewBox="0 0 60 56" fill="none" xmlns="http://www.w3.org/2000/svg">
<path fill-rule="evenodd" clip-rule="evenodd" d="M29.5831 4.23985e-05C25.19 -0.000656999 22.5091 -0.00108364 20.2755 0.733099C15.7684 2.21456 12.2348 5.78926 10.7704 10.3487L10.7482 10.4187H9.99628C0.455583 10.4187 -3.64285 22.6659 3.93587 28.5288L3.96329 28.55L10.3149 33.1091C10.5451 33.2743 10.7839 33.4264 11.0303 33.5647C11.0584 33.6394 11.0873 33.7139 11.1169 33.7884C11.7747 35.4414 13.0587 37.4247 14.2936 38.6953C16.3061 40.7659 18.3887 41.6842 21.7144 43.1504L21.9354 43.2478C23.3678 43.8796 24.8163 44.4527 26.1612 44.8708C26.7981 45.0688 27.4411 45.2416 28.0688 45.3671V52.093H19.701C18.6345 52.093 17.7699 52.9676 17.7699 54.0465C17.7699 55.1254 18.6345 56 19.701 56H40.2987C41.3652 56 42.2297 55.1254 42.2297 54.0465C42.2297 52.9676 41.3652 52.093 40.2987 52.093H31.9309V45.3671C32.5585 45.2416 33.2015 45.0689 33.8385 44.8708C35.1834 44.4527 36.6318 43.8796 38.0643 43.2478L38.2853 43.1504C41.6109 41.6842 43.6935 40.7659 45.706 38.6953C46.9409 37.4247 48.2249 35.4414 48.8827 33.7884C48.9115 33.716 48.9396 33.6434 48.967 33.5707C49.2187 33.4259 49.4632 33.2684 49.6996 33.0987L56.0367 28.55L56.0641 28.5288C63.6428 22.6659 59.5444 10.4187 50.0037 10.4187H49.2514L49.2293 10.3487C47.7648 5.78926 44.2312 2.21456 39.7241 0.733099C37.4905 -0.00108364 34.8097 -0.000656999 30.4165 4.23985e-05H29.5831ZM9.99628 14.3256H10.1309C10.0456 15.8497 10.0457 17.6774 10.0458 19.9674L10.0458 23.8742C10.0456 25.5023 10.0454 26.9063 10.0972 28.1623L6.25618 25.4053C1.64622 21.8042 4.15965 14.3256 9.99628 14.3256ZM53.7438 25.4053L49.9024 28.1626C49.9542 26.9071 49.9541 25.5038 49.9539 23.8767L49.9538 19.9673C49.9539 17.6776 49.954 15.8495 49.8687 14.3256H50.0037C55.8403 14.3256 58.3538 21.8042 53.7438 25.4053Z" fill="#FFC702"/>
</svg>
