<svg width="54" height="54" viewBox="0 0 54 54" fill="none" xmlns="http://www.w3.org/2000/svg">
<path d="M17.6215 14.5496L24.6467 3.08266C25.4778 1.72619 26.9499 0.899902 28.5355 0.899902C31.3341 0.899902 33.4741 3.40553 33.0486 6.18388L32.2831 11.1817C31.4551 16.588 35.6193 21.4635 41.0649 21.4635H43.2373C51.2278 21.4635 56.4248 29.91 52.8513 37.0889L49.234 44.3558C46.5665 49.7148 41.1135 53.0999 35.1487 53.0999H25.984C21.7387 53.0999 17.9839 50.9907 15.7014 47.7587C15.7321 47.4342 15.7479 47.1053 15.7479 46.7726V21.4635C15.7479 20.4164 15.592 19.4058 15.3023 18.4538C15.8605 17.424 16.6037 16.2109 17.6215 14.5496Z" fill="#FFC702"/>
<path d="M11.0235 46.7726C11.0235 49.8303 8.55581 52.309 5.51175 52.309C2.4677 52.309 0 49.8303 0 46.7726V21.4635C0 18.4059 2.4677 15.9272 5.51175 15.9272C8.55581 15.9272 11.0235 18.4059 11.0235 21.4635V46.7726Z" fill="#FFC702"/>
</svg>
