<svg width="189" height="56" viewBox="0 0 189 56" fill="none" xmlns="http://www.w3.org/2000/svg">
<path d="M182.276 56H6.6206C2.9708 56 0 53.0208 0 49.3738V6.6164C0 2.968 2.9708 0 6.6206 0H182.276C185.924 0 189 2.968 189 6.6164V49.3738C189 53.0208 185.924 56 182.276 56Z" fill="black"/>
<path d="M187.645 49.3748C187.645 52.3372 185.246 54.7368 182.278 54.7368H6.62106C3.65446 54.7368 1.24646 52.3372 1.24646 49.3748V6.61461C1.24646 3.65361 3.65446 1.24561 6.62106 1.24561H182.276C185.246 1.24561 187.644 3.65361 187.644 6.61461L187.645 49.3748Z" fill="black"/>
<path d="M42.1792 27.6982C42.1386 23.186 45.8738 20.9908 46.0446 20.8886C43.9292 17.8044 40.6504 17.383 39.4982 17.3494C36.7444 17.0596 34.0732 18.9972 32.6704 18.9972C31.2396 18.9972 29.0794 17.3774 26.7512 17.425C23.7552 17.4712 20.9524 19.2058 19.4152 21.8994C16.2428 27.3916 18.6088 35.4626 21.6482 39.902C23.1686 42.0762 24.9452 44.5038 27.2706 44.4184C29.5456 44.3246 30.3954 42.968 33.1408 42.968C35.861 42.968 36.659 44.4184 39.0306 44.3638C41.4722 44.3246 43.0094 42.1798 44.4766 39.986C46.2336 37.494 46.9392 35.0398 46.9672 34.9138C46.9098 34.8942 42.2254 33.1064 42.1792 27.6982Z" fill="white"/>
<path d="M37.6994 14.4287C38.923 12.8985 39.7602 10.8167 39.5278 8.7041C37.7568 8.7825 35.542 9.9291 34.2666 11.4257C33.1382 12.7445 32.1302 14.9061 32.3906 16.9389C34.38 17.0873 36.4226 15.9351 37.6994 14.4287Z" fill="white"/>
<path d="M75.1025 44.1048H71.9231L70.1815 38.6322H64.1279L62.4689 44.1048H59.3735L65.3711 25.4736H69.0755L75.1025 44.1048ZM69.6565 36.3362L68.0815 31.4712C67.9149 30.9742 67.6027 29.8038 67.1421 27.9614H67.0861C66.9027 28.7538 66.6073 29.9242 66.2013 31.4712L64.6543 36.3362H69.6565Z" fill="white"/>
<path d="M90.5268 37.2223C90.5268 39.5071 89.9094 41.3131 88.6746 42.6389C87.5686 43.8191 86.1952 44.4085 84.5558 44.4085C82.7862 44.4085 81.515 43.7729 80.7408 42.5017H80.6848V49.5787H77.7V35.0929C77.7 33.6565 77.6622 32.1823 77.5894 30.6703H80.2144L80.381 32.7997H80.437C81.4324 31.1953 82.943 30.3945 84.9702 30.3945C86.555 30.3945 87.878 31.0203 88.9364 32.2733C89.9976 33.5277 90.5268 35.1769 90.5268 37.2223ZM87.486 37.3315C87.486 36.0239 87.192 34.9459 86.6012 34.0975C85.9558 33.2127 85.0892 32.7703 84.0028 32.7703C83.2664 32.7703 82.5972 33.0167 81.9994 33.5025C81.4002 33.9925 81.0082 34.6323 80.8248 35.4247C80.7324 35.7943 80.6862 36.0967 80.6862 36.3347V38.5747C80.6862 39.5519 80.9858 40.3765 81.585 41.0499C82.1842 41.7233 82.9626 42.0593 83.9202 42.0593C85.0444 42.0593 85.9194 41.6253 86.5452 40.7601C87.1724 39.8935 87.486 38.7511 87.486 37.3315Z" fill="white"/>
<path d="M105.978 37.2223C105.978 39.5071 105.361 41.3131 104.125 42.6389C103.02 43.8191 101.647 44.4085 100.007 44.4085C98.2379 44.4085 96.9667 43.7729 96.1939 42.5017H96.1379V49.5787H93.1531V35.0929C93.1531 33.6565 93.1153 32.1823 93.0425 30.6703H95.6675L95.8341 32.7997H95.8901C96.8841 31.1953 98.3947 30.3945 100.423 30.3945C102.007 30.3945 103.33 31.0203 104.391 32.2733C105.448 33.5277 105.978 35.1769 105.978 37.2223ZM102.938 37.3315C102.938 36.0239 102.642 34.9459 102.051 34.0975C101.406 33.2127 100.542 32.7703 99.4545 32.7703C98.7167 32.7703 98.0489 33.0167 97.4497 33.5025C96.8505 33.9925 96.4599 34.6323 96.2765 35.4247C96.1855 35.7943 96.1379 36.0967 96.1379 36.3347V38.5747C96.1379 39.5519 96.4375 40.3765 97.0339 41.0499C97.6331 41.7219 98.4115 42.0593 99.3719 42.0593C100.496 42.0593 101.371 41.6253 101.997 40.7601C102.624 39.8935 102.938 38.7511 102.938 37.3315Z" fill="white"/>
<path d="M123.254 38.8806C123.254 40.4654 122.704 41.7548 121.599 42.7502C120.386 43.838 118.696 44.3812 116.524 44.3812C114.52 44.3812 112.912 43.9948 111.696 43.2206L112.387 40.7328C113.698 41.5252 115.136 41.9228 116.702 41.9228C117.826 41.9228 118.701 41.668 119.33 41.1612C119.956 40.6544 120.268 39.974 120.268 39.1256C120.268 38.3696 120.01 37.7326 119.494 37.216C118.98 36.6994 118.122 36.2192 116.923 35.7754C113.661 34.5588 112.032 32.7766 112.032 30.433C112.032 28.9014 112.603 27.6456 113.747 26.6684C114.886 25.6898 116.407 25.2012 118.308 25.2012C120.003 25.2012 121.412 25.4966 122.536 26.086L121.79 28.5192C120.74 27.948 119.553 27.6624 118.224 27.6624C117.174 27.6624 116.354 27.9214 115.766 28.4366C115.269 28.8972 115.019 29.4586 115.019 30.1236C115.019 30.86 115.304 31.469 115.875 31.9478C116.372 32.3902 117.275 32.869 118.585 33.3856C120.188 34.031 121.366 34.7856 122.123 35.6508C122.878 36.5132 123.254 37.5926 123.254 38.8806Z" fill="white"/>
<path d="M133.123 32.9121H129.833V39.4347C129.833 41.0937 130.413 41.9225 131.575 41.9225C132.108 41.9225 132.551 41.8763 132.901 41.7839L132.983 44.0505C132.395 44.2703 131.621 44.3809 130.662 44.3809C129.483 44.3809 128.562 44.0211 127.897 43.3029C127.235 42.5833 126.902 41.3765 126.902 39.6811V32.9093H124.942V30.6693H126.902V28.2095L129.833 27.3247V30.6693H133.123V32.9121Z" fill="white"/>
<path d="M147.967 37.2775C147.967 39.3425 147.376 41.0379 146.197 42.3637C144.961 43.7287 143.32 44.4091 141.275 44.4091C139.304 44.4091 137.734 43.7553 136.564 42.4477C135.394 41.1401 134.808 39.4895 134.808 37.5001C134.808 35.4183 135.41 33.7131 136.619 32.3873C137.824 31.0601 139.451 30.3965 141.496 30.3965C143.467 30.3965 145.054 31.0503 146.251 32.3593C147.396 33.6291 147.967 35.2685 147.967 37.2775ZM144.87 37.3741C144.87 36.1351 144.606 35.0725 144.069 34.1863C143.444 33.1139 142.549 32.5791 141.39 32.5791C140.19 32.5791 139.279 33.1153 138.653 34.1863C138.117 35.0739 137.852 36.1533 137.852 37.4301C137.852 38.6691 138.117 39.7317 138.653 40.6165C139.298 41.6889 140.2 42.2237 141.363 42.2237C142.503 42.2237 143.397 41.6777 144.043 40.5885C144.593 39.6855 144.87 38.6117 144.87 37.3741Z" fill="white"/>
<path d="M157.67 33.2953C157.374 33.2407 157.059 33.2127 156.729 33.2127C155.679 33.2127 154.867 33.6089 154.296 34.4027C153.799 35.1027 153.549 35.9875 153.549 37.0557V44.1047H150.566L150.594 34.9011C150.594 33.3527 150.556 31.9429 150.482 30.6717H153.082L153.191 33.2421H153.274C153.589 32.3587 154.086 31.6475 154.766 31.1141C155.431 30.6339 156.149 30.3945 156.923 30.3945C157.199 30.3945 157.448 30.4141 157.67 30.4491V33.2953Z" fill="white"/>
<path d="M171.018 36.7522C171.018 37.287 170.983 37.7378 170.909 38.106H161.955C161.99 39.4332 162.422 40.4482 163.254 41.1482C164.009 41.774 164.984 42.0876 166.183 42.0876C167.509 42.0876 168.718 41.8762 169.806 41.452L170.274 43.524C169.002 44.0784 167.502 44.3542 165.77 44.3542C163.687 44.3542 162.051 43.741 160.861 42.516C159.674 41.291 159.079 39.646 159.079 37.5824C159.079 35.5566 159.632 33.8696 160.74 32.5242C161.899 31.0878 163.465 30.3696 165.437 30.3696C167.373 30.3696 168.839 31.0878 169.834 32.5242C170.622 33.6652 171.018 35.0764 171.018 36.7522ZM168.172 35.978C168.192 35.0932 167.997 34.3288 167.593 33.6834C167.076 32.8532 166.282 32.4388 165.214 32.4388C164.238 32.4388 163.444 32.8434 162.838 33.6554C162.341 34.3008 162.046 35.075 161.955 35.9766H168.172V35.978Z" fill="white"/>
<path d="M68.67 14.0122C68.67 15.66 68.1758 16.9004 67.1888 17.7334C66.2746 18.502 64.9754 18.887 63.2926 18.887C62.4582 18.887 61.7442 18.8506 61.1464 18.7778V9.77438C61.9262 9.64838 62.7662 9.58398 63.6734 9.58398C65.2764 9.58398 66.4846 9.93258 67.2994 10.6298C68.2122 11.418 68.67 12.545 68.67 14.0122ZM67.123 14.0528C67.123 12.9846 66.8402 12.1656 66.2746 11.5944C65.709 11.0246 64.883 10.739 63.7952 10.739C63.3332 10.739 62.9398 10.7698 62.6136 10.8342V17.6788C62.7942 17.7068 63.1246 17.7194 63.6048 17.7194C64.7276 17.7194 65.5942 17.4072 66.2046 16.7828C66.815 16.1584 67.123 15.2484 67.123 14.0528Z" fill="white"/>
<path d="M76.8726 15.4519C76.8726 16.4669 76.5828 17.2985 76.0032 17.9509C75.3956 18.6215 74.5906 18.9561 73.5854 18.9561C72.6166 18.9561 71.8452 18.6355 71.2698 17.9915C70.6958 17.3489 70.4088 16.5383 70.4088 15.5611C70.4088 14.5391 70.7042 13.7005 71.2978 13.0495C71.8914 12.3985 72.6894 12.0723 73.6946 12.0723C74.6634 12.0723 75.4418 12.3929 76.0312 13.0355C76.5912 13.6599 76.8726 14.4663 76.8726 15.4519ZM75.3508 15.4995C75.3508 14.8905 75.2192 14.3683 74.9574 13.9329C74.6494 13.4065 74.2112 13.1433 73.6414 13.1433C73.052 13.1433 72.604 13.4065 72.296 13.9329C72.0328 14.3683 71.9026 14.8989 71.9026 15.5261C71.9026 16.1351 72.0342 16.6573 72.296 17.0927C72.6138 17.6191 73.0562 17.8823 73.6274 17.8823C74.1874 17.8823 74.627 17.6149 74.9434 17.0787C75.215 16.6349 75.3508 16.1085 75.3508 15.4995Z" fill="white"/>
<path d="M87.8711 12.2075L85.8061 18.8071H84.4621L83.6067 15.9413C83.3897 15.2259 83.2133 14.5147 83.0761 13.8091H83.0495C82.9221 14.5343 82.7457 15.2441 82.5189 15.9413L81.6103 18.8071H80.2509L78.3091 12.2075H79.8169L80.5631 15.3449C80.7437 16.0869 80.8921 16.7939 81.0111 17.4631H81.0377C81.1469 16.9115 81.3275 16.2087 81.5823 15.3589L82.5189 12.2089H83.7145L84.6119 15.2917C84.8289 16.0435 85.0053 16.7673 85.1411 17.4645H85.1817C85.2811 16.7855 85.4309 16.0617 85.6297 15.2917L86.4305 12.2089H87.8711V12.2075Z" fill="white"/>
<path d="M95.4768 18.8075H94.0096V15.0275C94.0096 13.8627 93.5672 13.2803 92.6796 13.2803C92.2442 13.2803 91.8928 13.4399 91.6198 13.7605C91.3496 14.0811 91.2124 14.4591 91.2124 14.8917V18.8061H89.7452V14.0937C89.7452 13.5141 89.727 12.8855 89.692 12.2051H90.9814L91.05 13.2369H91.0906C91.2614 12.9163 91.5162 12.6517 91.8508 12.4403C92.2484 12.1939 92.6936 12.0693 93.1808 12.0693C93.7968 12.0693 94.3092 12.2681 94.7166 12.6671C95.2234 13.1557 95.4768 13.8851 95.4768 14.8539V18.8075Z" fill="white"/>
<path d="M99.5237 18.806H98.0579V9.17822H99.5237V18.806Z" fill="white"/>
<path d="M108.161 15.4519C108.161 16.4669 107.872 17.2985 107.292 17.9509C106.684 18.6215 105.878 18.9561 104.874 18.9561C103.904 18.9561 103.133 18.6355 102.559 17.9915C101.985 17.3489 101.698 16.5383 101.698 15.5611C101.698 14.5391 101.993 13.7005 102.587 13.0495C103.18 12.3985 103.978 12.0723 104.982 12.0723C105.952 12.0723 106.729 12.3929 107.32 13.0355C107.88 13.6599 108.161 14.4663 108.161 15.4519ZM106.638 15.4995C106.638 14.8905 106.507 14.3683 106.245 13.9329C105.938 13.4065 105.499 13.1433 104.93 13.1433C104.339 13.1433 103.891 13.4065 103.585 13.9329C103.322 14.3683 103.191 14.8989 103.191 15.5261C103.191 16.1351 103.323 16.6573 103.585 17.0927C103.903 17.6191 104.345 17.8823 104.916 17.8823C105.476 17.8823 105.914 17.6149 106.231 17.0787C106.504 16.6349 106.638 16.1085 106.638 15.4995Z" fill="white"/>
<path d="M115.262 18.8063H113.944L113.835 18.0461H113.794C113.344 18.6523 112.701 18.9561 111.867 18.9561C111.244 18.9561 110.74 18.7559 110.36 18.3583C110.016 17.9971 109.844 17.5477 109.844 17.0143C109.844 16.2079 110.18 15.5933 110.856 15.1677C111.531 14.7421 112.48 14.5335 113.702 14.5433V14.4201C113.702 13.5507 113.246 13.1167 112.331 13.1167C111.68 13.1167 111.106 13.2805 110.611 13.6053L110.313 12.6421C110.926 12.2627 111.683 12.0723 112.576 12.0723C114.301 12.0723 115.166 12.9823 115.166 14.8023V17.2327C115.166 17.8921 115.199 18.4171 115.262 18.8063ZM113.738 16.5383V15.5205C112.12 15.4925 111.311 15.9363 111.311 16.8505C111.311 17.1949 111.403 17.4525 111.592 17.6247C111.781 17.7969 112.022 17.8823 112.309 17.8823C112.631 17.8823 112.932 17.7801 113.206 17.5771C113.482 17.3727 113.652 17.1137 113.715 16.7959C113.73 16.7245 113.738 16.6377 113.738 16.5383Z" fill="white"/>
<path d="M123.599 18.806H122.297L122.229 17.7462H122.188C121.772 18.5526 121.064 18.9558 120.068 18.9558C119.273 18.9558 118.611 18.6436 118.086 18.0192C117.561 17.3948 117.299 16.5842 117.299 15.5888C117.299 14.5206 117.583 13.6554 118.155 12.9946C118.708 12.3786 119.385 12.0706 120.192 12.0706C121.078 12.0706 121.698 12.3688 122.051 12.9666H122.079V9.17822H123.547V17.028C123.547 17.6706 123.564 18.2628 123.599 18.806ZM122.079 16.0228V14.9224C122.079 14.732 122.065 14.578 122.038 14.4604C121.956 14.1076 121.778 13.8108 121.508 13.5714C121.235 13.332 120.906 13.2116 120.526 13.2116C119.979 13.2116 119.55 13.4286 119.235 13.864C118.923 14.2994 118.765 14.8552 118.765 15.5342C118.765 16.1866 118.915 16.7158 119.216 17.1232C119.534 17.5572 119.962 17.7742 120.498 17.7742C120.98 17.7742 121.365 17.5936 121.657 17.231C121.94 16.8964 122.079 16.4932 122.079 16.0228Z" fill="white"/>
<path d="M136.147 15.4519C136.147 16.4669 135.857 17.2985 135.278 17.9509C134.67 18.6215 133.867 18.9561 132.86 18.9561C131.893 18.9561 131.121 18.6355 130.544 17.9915C129.97 17.3489 129.683 16.5383 129.683 15.5611C129.683 14.5391 129.979 13.7005 130.572 13.0495C131.166 12.3985 131.964 12.0723 132.971 12.0723C133.938 12.0723 134.718 12.3929 135.306 13.0355C135.866 13.6599 136.147 14.4663 136.147 15.4519ZM134.627 15.4995C134.627 14.8905 134.495 14.3683 134.233 13.9329C133.924 13.4065 133.487 13.1433 132.916 13.1433C132.328 13.1433 131.88 13.4065 131.571 13.9329C131.307 14.3683 131.177 14.8989 131.177 15.5261C131.177 16.1351 131.309 16.6573 131.571 17.0927C131.888 17.6191 132.331 17.8823 132.902 17.8823C133.462 17.8823 133.903 17.6149 134.219 17.0787C134.49 16.6349 134.627 16.1085 134.627 15.4995Z" fill="white"/>
<path d="M144.037 18.8075H142.571V15.0275C142.571 13.8627 142.128 13.2803 141.239 13.2803C140.804 13.2803 140.453 13.4399 140.181 13.7605C139.909 14.0811 139.774 14.4591 139.774 14.8917V18.8061H138.305V14.0937C138.305 13.5141 138.288 12.8855 138.253 12.2051H139.541L139.61 13.2369H139.65C139.823 12.9163 140.077 12.6517 140.411 12.4403C140.81 12.1939 141.253 12.0693 141.742 12.0693C142.357 12.0693 142.869 12.2681 143.276 12.6671C143.785 13.1557 144.037 13.8851 144.037 14.8539V18.8075Z" fill="white"/>
<path d="M153.91 13.3061H152.295V16.5121C152.295 17.3269 152.582 17.7343 153.15 17.7343C153.413 17.7343 153.632 17.7119 153.804 17.6657L153.842 18.7787C153.552 18.8879 153.171 18.9425 152.702 18.9425C152.123 18.9425 151.672 18.7661 151.346 18.4133C151.018 18.0605 150.856 17.4669 150.856 16.6339V13.3061H149.891V12.2071H150.856V10.9975L152.293 10.5635V12.2057H153.909V13.3061H153.91Z" fill="white"/>
<path d="M161.677 18.806H160.209V15.054C160.209 13.871 159.766 13.2788 158.88 13.2788C158.2 13.2788 157.735 13.6218 157.48 14.3078C157.437 14.452 157.411 14.6284 157.411 14.8356V18.8046H155.946V9.17822H157.411V13.1556H157.439C157.901 12.4318 158.564 12.0706 159.422 12.0706C160.029 12.0706 160.532 12.2694 160.931 12.6684C161.428 13.1654 161.677 13.9046 161.677 14.8818V18.806Z" fill="white"/>
<path d="M169.69 15.1942C169.69 15.4574 169.67 15.6786 169.635 15.8592H165.235C165.255 16.5116 165.465 17.0086 165.872 17.353C166.244 17.661 166.725 17.815 167.313 17.815C167.964 17.815 168.557 17.7114 169.092 17.5028L169.322 18.522C168.696 18.7936 167.959 18.9294 167.107 18.9294C166.085 18.9294 165.28 18.6284 164.697 18.0264C164.112 17.4244 163.822 16.6166 163.822 15.603C163.822 14.6076 164.093 13.7788 164.637 13.118C165.206 12.4124 165.974 12.0596 166.944 12.0596C167.894 12.0596 168.615 12.4124 169.102 13.118C169.495 13.678 169.69 14.371 169.69 15.1942ZM168.29 14.8148C168.301 14.3794 168.204 14.0042 168.006 13.6878C167.751 13.2804 167.363 13.076 166.838 13.076C166.359 13.076 165.969 13.2748 165.67 13.6738C165.427 13.9916 165.283 14.371 165.235 14.8148H168.29Z" fill="white"/>
</svg>
