<svg width="264" height="77" viewBox="0 0 264 77" fill="none" xmlns="http://www.w3.org/2000/svg">
<path d="M254.607 77H9.24782C4.14969 77 0 72.9036 0 67.889V9.09755C0 4.081 4.14969 0 9.24782 0H254.607C259.704 0 264 4.081 264 9.09755V67.889C264 72.9036 259.704 77 254.607 77Z" fill="black"/>
<path d="M58.9163 38.0827C58.8596 31.8784 64.0771 28.86 64.3156 28.7195C61.3608 24.4787 56.7809 23.8993 55.1715 23.8531C51.3249 23.4546 47.5937 26.1188 45.6342 26.1188C43.6356 26.1188 40.6182 23.8916 37.3661 23.9571C33.1812 24.0206 29.2662 26.4057 27.119 30.1094C22.6877 37.6611 25.9926 48.7588 30.2381 54.8629C32.3619 57.8525 34.8435 61.1904 38.0916 61.073C41.2694 60.944 42.4564 59.0787 46.2913 59.0787C50.0909 59.0787 51.2056 61.073 54.5183 60.9979C57.9288 60.944 60.076 57.9949 62.1254 54.9784C64.5796 51.5519 65.5652 48.1774 65.6043 48.0042C65.5242 47.9772 58.9809 45.519 58.9163 38.0827Z" fill="white"/>
<path d="M52.6594 19.8376C54.3685 17.7336 55.538 14.8711 55.2133 11.9663C52.7396 12.0741 49.6459 13.6507 47.8644 15.7085C46.2882 17.5219 44.8802 20.4941 45.2439 23.2892C48.0228 23.4932 50.8759 21.9089 52.6594 19.8376Z" fill="white"/>
<path d="M104.906 50.9927H100.465L98.0324 43.4679H89.5766L87.2593 50.9927H82.9355L91.3131 25.3748H96.4875L104.906 50.9927ZM97.2991 40.3109L95.0991 33.6215C94.8664 32.9381 94.4303 31.3288 93.7869 28.7955H93.7087C93.4525 29.8851 93.0399 31.4944 92.4728 33.6215L90.3119 40.3109H97.2991V40.3109Z" fill="white"/>
<path d="M126.451 41.5295C126.451 44.6711 125.588 47.1544 123.863 48.9773C122.319 50.6001 120.4 51.4105 118.11 51.4105C115.638 51.4105 113.863 50.5366 112.781 48.7887H112.703V58.5196H108.534V38.6016C108.534 36.6265 108.481 34.5995 108.379 32.5205H112.046L112.279 35.4484H112.357C113.747 33.2424 115.857 32.1413 118.689 32.1413C120.903 32.1413 122.751 33.0018 124.229 34.7246C125.711 36.4494 126.451 38.7171 126.451 41.5295ZM122.203 41.6797C122.203 39.8817 121.793 38.3995 120.967 37.2329C120.066 36.0163 118.855 35.408 117.338 35.408C116.309 35.408 115.374 35.7468 114.539 36.4148C113.702 37.0885 113.155 37.9683 112.899 39.0578C112.77 39.566 112.705 39.9818 112.705 40.3091V43.3891C112.705 44.7327 113.124 45.8665 113.961 46.7925C114.798 47.7184 115.885 48.1804 117.222 48.1804C118.793 48.1804 120.015 47.5836 120.889 46.394C121.765 45.2024 122.203 43.6316 122.203 41.6797Z" fill="white"/>
<path d="M148.034 41.5295C148.034 44.6711 147.172 47.1544 145.445 48.9773C143.902 50.6001 141.984 51.4105 139.694 51.4105C137.222 51.4105 135.446 50.5366 134.367 48.7887H134.289V58.5196H130.119V38.6016C130.119 36.6265 130.067 34.5995 129.965 32.5205H133.632L133.864 35.4484H133.942C135.331 33.2424 137.441 32.1413 140.275 32.1413C142.486 32.1413 144.334 33.0018 145.817 34.7246C147.293 36.4494 148.034 38.7171 148.034 41.5295ZM143.787 41.6797C143.787 39.8817 143.374 38.3995 142.549 37.2329C141.647 36.0163 140.441 35.408 138.921 35.408C137.891 35.408 136.958 35.7468 136.121 36.4148C135.284 37.0885 134.738 37.9683 134.482 39.0578C134.355 39.566 134.289 39.9818 134.289 40.3091V43.3891C134.289 44.7327 134.707 45.8665 135.54 46.7925C136.377 47.7165 137.464 48.1804 138.806 48.1804C140.376 48.1804 141.598 47.5836 142.473 46.394C143.349 45.2024 143.787 43.6316 143.787 41.6797Z" fill="white"/>
<path d="M172.166 43.8093C172.166 45.9884 171.398 47.7613 169.855 49.13C168.159 50.6257 165.799 51.3726 162.766 51.3726C159.965 51.3726 157.72 50.8413 156.021 49.7768L156.987 46.3561C158.817 47.4456 160.826 47.9923 163.014 47.9923C164.584 47.9923 165.807 47.642 166.685 46.9451C167.559 46.2483 167.995 45.3127 167.995 44.1462C167.995 43.1067 167.635 42.2308 166.913 41.5205C166.196 40.8102 164.997 40.1499 163.323 39.5397C158.767 37.8668 156.49 35.4163 156.49 32.1939C156.49 30.0879 157.288 28.3612 158.886 27.0175C160.478 25.6719 162.601 25.0001 165.257 25.0001C167.625 25.0001 169.593 25.4063 171.163 26.2167L170.121 29.5624C168.654 28.777 166.996 28.3843 165.14 28.3843C163.673 28.3843 162.527 28.7404 161.706 29.4488C161.012 30.0821 160.663 30.854 160.663 31.7684C160.663 32.781 161.06 33.6183 161.858 34.2767C162.553 34.885 163.814 35.5433 165.644 36.2537C167.883 37.1411 169.528 38.1787 170.586 39.3683C171.64 40.5541 172.166 42.0383 172.166 43.8093Z" fill="white"/>
<path d="M185.95 35.5991H181.354V44.5677C181.354 46.8488 182.164 47.9884 183.787 47.9884C184.532 47.9884 185.15 47.9249 185.639 47.7978L185.754 50.9144C184.933 51.2166 183.851 51.3687 182.512 51.3687C180.865 51.3687 179.579 50.874 178.65 49.8865C177.725 48.897 177.259 47.2377 177.259 44.9065V35.5953H174.521V32.5153H177.259V29.133L181.354 27.9164V32.5153H185.95V35.5991Z" fill="white"/>
<path d="M206.684 41.6051C206.684 44.4444 205.859 46.7756 204.212 48.5986C202.485 50.4755 200.193 51.411 197.336 51.411C194.583 51.411 192.391 50.512 190.756 48.7141C189.121 46.9161 188.304 44.6466 188.304 41.9111C188.304 39.0487 189.145 36.704 190.832 34.881C192.516 33.0561 194.788 32.1437 197.645 32.1437C200.399 32.1437 202.614 33.0427 204.286 34.8425C205.886 36.5885 206.684 38.8427 206.684 41.6051ZM202.358 41.7379C202.358 40.0343 201.989 38.5732 201.24 37.3547C200.366 35.8801 199.116 35.1448 197.497 35.1448C195.821 35.1448 194.548 35.882 193.674 37.3547C192.925 38.5751 192.555 40.0593 192.555 41.8149C192.555 43.5185 192.925 44.9796 193.674 46.1962C194.575 47.6707 195.835 48.4061 197.46 48.4061C199.051 48.4061 200.301 47.6553 201.203 46.1577C201.971 44.9161 202.358 43.4396 202.358 41.7379Z" fill="white"/>
<path d="M220.237 36.1299C219.824 36.0548 219.384 36.0163 218.923 36.0163C217.456 36.0163 216.322 36.5611 215.524 37.6526C214.83 38.6151 214.482 39.8317 214.482 41.3004V50.9928H210.315L210.354 38.3379C210.354 36.2088 210.301 34.2703 210.197 32.5224H213.829L213.981 36.0567H214.097C214.537 34.8421 215.231 33.8642 216.181 33.1307C217.11 32.4705 218.113 32.1413 219.195 32.1413C219.58 32.1413 219.928 32.1682 220.237 32.2164V36.1299Z" fill="white"/>
<path d="M238.883 40.8827C238.883 41.6181 238.834 42.2379 238.73 42.7442H226.222C226.271 44.5691 226.875 45.9647 228.037 46.9272C229.091 47.7877 230.454 48.2189 232.128 48.2189C233.98 48.2189 235.67 47.9282 237.189 47.3449L237.842 50.1939C236.067 50.9562 233.97 51.3355 231.551 51.3355C228.641 51.3355 226.357 50.4923 224.695 48.8079C223.037 47.1236 222.206 44.8617 222.206 42.0242C222.206 39.2388 222.978 36.9191 224.525 35.0692C226.144 33.0942 228.332 32.1066 231.086 32.1066C233.79 32.1066 235.838 33.0942 237.228 35.0692C238.329 36.6381 238.883 38.5785 238.883 40.8827ZM234.907 39.8182C234.934 38.6016 234.662 37.5505 234.097 36.6631C233.376 35.5216 232.267 34.9518 230.775 34.9518C229.412 34.9518 228.303 35.5081 227.456 36.6246C226.762 37.512 226.349 38.5766 226.222 39.8163H234.907V39.8182Z" fill="white"/>
</svg>
