<svg width="217" height="64" viewBox="0 0 217 64" fill="none" xmlns="http://www.w3.org/2000/svg">
<path d="M208.004 63.9988H8.00432C3.60423 63.9988 0.00421143 60.3989 0.00421143 55.999V7.99985C0.00421143 3.5999 3.60423 0 8.00432 0H208.004C212.404 0 216.004 3.5999 216.004 7.99985V55.999C216.004 60.3989 212.404 63.9988 208.004 63.9988Z" fill="black"/>
<path d="M208.004 0H8.00432C3.60423 0 0.00421143 3.5999 0.00421143 7.99985V55.999C0.00421143 60.3989 3.60423 63.9988 8.00432 63.9988H208.004C212.404 63.9988 216.004 60.3989 216.004 55.999V7.99985C216.004 3.5999 212.404 0 208.004 0ZM208.004 1.27933C211.71 1.27933 214.724 4.29435 214.724 7.99985V55.999C214.724 59.7045 211.71 62.7195 208.004 62.7195H8.00432C4.2987 62.7195 1.2849 59.7045 1.2849 55.999V7.99985C1.2849 4.29435 4.2987 1.27933 8.00432 1.27933H208.004Z" fill="#100F0D"/>
<path d="M171.103 47.9989H174.088V27.996H171.103V47.9989ZM197.995 35.202L194.572 43.8738H194.47L190.918 35.202H187.702L193.03 47.3221L189.992 54.0643H193.105L201.315 35.2026L197.995 35.202ZM181.062 45.7268C180.086 45.7268 178.721 45.2374 178.721 44.0281C178.721 42.4843 180.42 41.8924 181.886 41.8924C183.198 41.8924 183.817 42.175 184.614 42.5612C184.382 44.4143 182.787 45.7267 181.062 45.7267L181.062 45.7268ZM181.424 34.7645C179.262 34.7645 177.023 35.717 176.097 37.827L178.747 38.9333C179.313 37.827 180.368 37.4671 181.475 37.4671C183.019 37.4671 184.588 38.3927 184.614 40.0401V40.2457C184.073 39.9369 182.915 39.4739 181.5 39.4739C178.643 39.4739 175.735 41.0432 175.735 43.9768C175.735 46.6531 178.078 48.3774 180.702 48.3774C182.708 48.3774 183.817 47.4767 184.51 46.4212H184.614V47.9661H187.497V40.2969C187.497 36.7457 184.844 34.7645 181.424 34.7645V34.7645ZM162.972 37.637H158.725V30.781H162.972C165.204 30.781 166.471 32.6285 166.471 34.2089C166.471 35.7589 165.204 37.637 162.972 37.637ZM162.895 27.9965H155.741V47.9994H158.725V40.4215H162.895C166.204 40.4215 169.457 38.0265 169.457 34.2096C169.457 30.3935 166.204 27.9973 162.895 27.9973L162.895 27.9965ZM123.885 45.7302C121.822 45.7302 120.096 44.0026 120.096 41.6321C120.096 39.234 121.822 37.4822 123.885 37.4822C125.921 37.4822 127.519 39.2342 127.519 41.6321C127.519 44.0026 125.921 45.7302 123.885 45.7302ZM127.313 36.3218H127.21C126.54 35.5229 125.25 34.8011 123.627 34.8011C120.224 34.8011 117.105 37.7916 117.105 41.6321C117.105 45.4465 120.224 48.4107 123.627 48.4107C125.25 48.4107 126.54 47.6888 127.21 46.8645H127.313V47.8432C127.313 50.4476 125.921 51.8388 123.679 51.8388C121.849 51.8388 120.715 50.5244 120.25 49.4162L117.647 50.4987C118.394 52.3023 120.379 54.5199 123.679 54.5199C127.185 54.5199 130.149 52.4573 130.149 47.4306V35.2134H127.313L127.313 36.3218ZM132.212 47.9983H135.201V27.9954H132.212V47.9983ZM139.609 41.3997C139.532 38.7704 141.646 37.4303 143.167 37.4303C144.353 37.4303 145.357 38.0234 145.693 38.8734L139.609 41.3997ZM148.888 39.131C148.322 37.611 146.595 34.8011 143.063 34.8011C139.557 34.8011 136.645 37.5591 136.645 41.606C136.645 45.4209 139.532 48.4109 143.398 48.4109C146.517 48.4109 148.322 46.5041 149.07 45.3952L146.75 43.8484C145.976 44.9828 144.92 45.7303 143.398 45.7303C141.878 45.7303 140.795 45.0341 140.1 43.668L149.198 39.9049L148.888 39.131ZM76.3949 36.8891V39.776H83.3029C83.0967 41.3998 82.5554 42.5853 81.7304 43.4103C80.7248 44.4153 79.1523 45.524 76.3948 45.524C72.1414 45.524 68.8165 42.0959 68.8165 37.8429C68.8165 33.5898 72.1414 30.1613 76.3948 30.1613C78.689 30.1613 80.3641 31.0637 81.6015 32.2236L83.6385 30.1868C81.9109 28.5374 79.6171 27.2744 76.3948 27.2744C70.5683 27.2744 65.6708 32.0173 65.6708 37.8429C65.6708 43.6678 70.5683 48.4109 76.3948 48.4109C79.5391 48.4109 81.911 47.3797 83.7666 45.4466C85.6742 43.5391 86.2673 40.8585 86.2673 38.693C86.2673 38.0235 86.2153 37.4049 86.1123 36.8891H76.3949ZM94.122 45.7302C92.0593 45.7302 90.2806 44.0289 90.2806 41.606C90.2806 39.1572 92.0593 37.4823 94.122 37.4823C96.1838 37.4823 97.9625 39.1572 97.9625 41.606C97.9625 44.0289 96.1838 45.7302 94.122 45.7302ZM94.122 34.8011C90.3574 34.8011 87.2905 37.6622 87.2905 41.606C87.2905 45.524 90.3574 48.4109 94.122 48.4109C97.8851 48.4109 100.953 45.524 100.953 41.606C100.953 37.6622 97.8851 34.8011 94.122 34.8011ZM109.023 45.7302C106.962 45.7302 105.182 44.0289 105.182 41.606C105.182 39.1572 106.962 37.4823 109.023 37.4823C111.086 37.4823 112.864 39.1572 112.864 41.606C112.864 44.0289 111.086 45.7302 109.023 45.7302ZM109.023 34.8011C105.26 34.8011 102.193 37.6622 102.193 41.606C102.193 45.524 105.26 48.4109 109.023 48.4109C112.787 48.4109 115.854 45.524 115.854 41.606C115.854 37.6622 112.787 34.8011 109.023 34.8011Z" fill="white"/>
<path d="M33.1472 31.0779L16.1143 49.1572C16.1149 49.1609 16.1162 49.164 16.1168 49.1678C16.6392 51.1311 18.4323 52.5766 20.5604 52.5766C21.4111 52.5766 22.2098 52.3466 22.8948 51.9428L22.9492 51.911L42.1229 40.8469L33.148 31.0776" fill="#EA4335"/>
<path d="M50.3811 27.9999L50.3647 27.9888L42.0868 23.1899L32.7607 31.4887L42.1192 40.846L50.3535 36.0949C51.7971 35.3156 52.7771 33.7937 52.7771 32.0387C52.7771 30.2963 51.8102 28.782 50.3809 28.0001" fill="#FBBC04"/>
<path d="M16.1118 14.8428C16.0094 15.2204 15.9556 15.6159 15.9556 16.0266V47.9744C15.9556 48.3843 16.0088 48.7812 16.1125 49.1574L33.7334 31.5401L16.1125 14.8432" fill="#4285F4"/>
<path d="M33.2732 32.0007L42.09 23.1865L22.9379 12.0824C22.2417 11.6654 21.4292 11.4248 20.5598 11.4248C18.4317 11.4248 16.6362 12.873 16.1137 14.8385C16.113 14.8404 16.113 14.8417 16.113 14.8434L33.2731 32.0011" fill="#34A853"/>
<path d="M75.8346 15.6493H71.1671V16.8044H74.6647C74.5697 17.7469 74.1946 18.4869 73.5621 19.0244C72.9296 19.562 72.1221 19.8319 71.1671 19.8319C70.1195 19.8319 69.232 19.4669 68.5046 18.742C67.792 18.002 67.4296 17.0869 67.4296 15.9845C67.4296 14.8821 67.792 13.967 68.5046 13.2271C69.232 12.5022 70.1196 12.1396 71.1671 12.1396C71.7047 12.1396 72.2172 12.2321 72.6871 12.4346C73.1571 12.637 73.5346 12.9196 73.8296 13.2821L74.7172 12.3946C74.3146 11.9371 73.8047 11.5871 73.172 11.3321C72.5395 11.0771 71.8795 10.9547 71.1669 10.9547C69.7695 10.9547 68.5846 11.4396 67.617 12.4072C66.6494 13.3771 66.1644 14.5721 66.1644 15.9845C66.1644 17.3969 66.6494 18.5945 67.617 19.5621C68.5845 20.5294 69.7695 21.0146 71.1669 21.0146C72.6345 21.0146 73.8045 20.5445 74.7046 19.5894C75.497 18.7946 75.902 17.7196 75.902 16.3746C75.902 16.1471 75.8745 15.9046 75.8345 15.6495L75.8346 15.6493ZM77.6429 11.1695V20.7994H83.2653V19.6169H78.8804V16.562H82.8355V15.407H78.8804V12.3545H83.2653V11.1694L77.6429 11.1695ZM91.1494 12.3546V11.1695H84.5317V12.3546H87.2219V20.7994H88.4594V12.3546H91.1494ZM97.1406 11.1695H95.9031V20.7994H97.1406V11.1695ZM105.309 12.3546V11.1695H98.6913V12.3546H101.381V20.7994H102.619V12.3546H105.309ZM117.797 12.4221C116.841 11.4395 115.672 10.9546 114.274 10.9546C112.874 10.9546 111.704 11.4395 110.749 12.4071C109.794 13.3621 109.324 14.5595 109.324 15.9844C109.324 17.4093 109.794 18.6069 110.749 19.562C111.704 20.5293 112.874 21.0145 114.274 21.0145C115.659 21.0145 116.841 20.5294 117.797 19.562C118.752 18.607 119.221 17.4094 119.221 15.9844C119.221 14.572 118.752 13.3769 117.797 12.4221ZM111.636 13.227C112.349 12.5021 113.224 12.1395 114.274 12.1395C115.321 12.1395 116.197 12.5021 116.897 13.227C117.609 13.9395 117.959 14.8694 117.959 15.9844C117.959 17.102 117.609 18.0293 116.897 18.7419C116.196 19.4668 115.321 19.8318 114.274 19.8318C113.224 19.8318 112.349 19.4668 111.636 18.7419C110.939 18.0144 110.589 17.102 110.589 15.9844C110.589 14.8694 110.939 13.9545 111.636 13.227ZM122.162 14.802L122.109 12.9444H122.162L127.057 20.7993H128.349V11.1694H127.112V16.8042L127.164 18.6619H127.112L122.432 11.1694H120.924V20.7993H122.162V14.802Z" fill="white" stroke="white" stroke-width="0.26666" stroke-miterlimit="10"/>
</svg>
