<svg width="16" height="16" viewBox="0 0 16 16" fill="none" xmlns="http://www.w3.org/2000/svg">
<path d="M1.63582 3.05025C1.24529 2.65972 1.24529 2.02656 1.63582 1.63603C2.02634 1.24551 2.65951 1.24551 3.05003 1.63603L14.3637 12.9497C14.7543 13.3403 14.7543 13.9734 14.3637 14.364C13.9732 14.7545 13.34 14.7545 12.9495 14.364L1.63582 3.05025Z" fill="#CBD4FA"/>
<path d="M3.05037 14.3639C2.65984 14.7545 2.02668 14.7545 1.63615 14.3639C1.24563 13.9734 1.24563 13.3402 1.63615 12.9497L12.9499 1.63602C13.3404 1.24549 13.9736 1.24549 14.3641 1.63602C14.7546 2.02654 14.7546 2.6597 14.3641 3.05023L3.05037 14.3639Z" fill="#CBD4FA"/>
</svg>
