<svg width="22" height="20" viewBox="0 0 22 20" fill="none" xmlns="http://www.w3.org/2000/svg">
<path fill-rule="evenodd" clip-rule="evenodd" d="M12.4003 2.32626C11.4744 2.15791 10.5256 2.15791 9.59968 2.32626C5.50359 3.07101 2.71882 6.8859 3.2318 10.9945C4.59215 11.1946 5.63636 12.3666 5.63636 13.7825V15.6007C5.63636 17.1572 4.37462 18.4189 2.81818 18.4189C1.26174 18.4189 0 17.1572 0 15.6007V13.7825C0 12.7964 0.505994 11.9298 1.27193 11.4264C0.519784 6.19804 4.0379 1.30471 9.24191 0.358524C10.4044 0.147154 11.5956 0.147155 12.7581 0.358524C17.9621 1.30471 21.4802 6.19804 20.7281 11.4264C21.494 11.9298 22 12.7964 22 13.7825V15.6007C22 17.1572 20.7383 18.4189 19.1818 18.4189C17.6254 18.4189 16.3636 17.1572 16.3636 15.6007V13.7825C16.3636 12.3666 17.4079 11.1946 18.7682 10.9945C19.2812 6.8859 16.4964 3.07101 12.4003 2.32626ZM14.8383 10.3482C15.2289 9.95763 15.862 9.95763 16.2526 10.3482C16.6431 10.7387 16.6431 11.3718 16.2526 11.7624L15.8889 12.126C15.8321 12.1829 15.8111 12.2039 15.7947 12.2208C14.4576 13.5967 14.4576 15.7866 15.7947 17.1625C15.8111 17.1794 15.8321 17.2004 15.8889 17.2572L16.2526 17.6209C16.6431 18.0114 16.6431 18.6446 16.2526 19.0351C15.862 19.4256 15.2289 19.4256 14.8383 19.0351L14.4747 18.6715C14.4227 18.6195 14.3893 18.5861 14.3604 18.5563C12.2691 16.4042 12.2691 12.979 14.3604 10.827C14.3881 10.7984 14.4201 10.7664 14.4685 10.718L14.8383 10.3482ZM5.74744 10.3482C6.13796 9.95763 6.77113 9.95763 7.16165 10.3482L7.5316 10.7181C7.58 10.7665 7.6119 10.7984 7.63964 10.827C9.73094 12.979 9.73095 16.4042 7.63965 18.5563C7.61188 18.5849 7.57994 18.6168 7.53145 18.6653L7.16165 19.0351C6.77113 19.4256 6.13796 19.4256 5.74744 19.0351C5.35691 18.6446 5.35691 18.0114 5.74744 17.6209L6.11108 17.2572C6.16793 17.2004 6.18889 17.1794 6.20533 17.1625C7.54239 15.7866 7.54239 13.5967 6.20533 12.2208C6.18889 12.2039 6.16793 12.1829 6.11108 12.126L5.74744 11.7624C5.35691 11.3718 5.35691 10.7387 5.74744 10.3482ZM2.81818 12.9644C2.74737 12.9644 2.68003 12.9731 2.61659 12.9891C2.26166 13.0787 2 13.4013 2 13.7825V15.6007C2 16.0526 2.36631 16.4189 2.81818 16.4189C3.27005 16.4189 3.63636 16.0526 3.63636 15.6007V13.7825C3.63636 13.3307 3.27005 12.9644 2.81818 12.9644ZM19.1818 12.9644C18.7299 12.9644 18.3636 13.3307 18.3636 13.7825V15.6007C18.3636 16.0526 18.7299 16.4189 19.1818 16.4189C19.6337 16.4189 20 16.0526 20 15.6007V13.7825C20 13.4013 19.7383 13.0787 19.3834 12.9891C19.32 12.9731 19.2526 12.9644 19.1818 12.9644Z" fill="#5270EE"/>
</svg>
