<svg width="64" height="46" viewBox="0 0 64 46" fill="none" xmlns="http://www.w3.org/2000/svg">
<path d="M62.5834 26.0172C59.6689 35.9996 52.9526 42.2683 43.2073 45.4652C42.5008 45.7138 41.7434 45.7816 41.004 45.6624C38.6996 45.1695 37.9243 42.4654 39.4056 40.5366C40.9614 38.5199 42.488 36.4739 43.8946 34.3532C44.7418 33.0771 45.3332 31.6305 46.0259 30.2771C44.8057 29.8375 43.6708 29.5205 42.6132 29.033C39.8049 27.7287 37.4772 25.5754 35.9585 22.877C34.4399 20.1786 33.807 17.0714 34.1493 13.994C34.486 10.9518 35.7482 8.08617 37.7653 5.7841C39.7825 3.48203 42.4575 1.85442 45.4292 1.12102C54.4872 -1.06089 62.2797 5.15715 63.689 13.3333C64.4323 17.6305 63.7903 21.8825 62.5834 26.0172Z" fill="#F1F4FF"/>
<path d="M29.3432 22.5961C28.48 27.6739 26.5459 32.2908 23.229 36.2737C19.3155 40.9732 14.3016 43.9757 8.48582 45.6967C7.84646 45.8683 7.16865 45.8279 6.55423 45.5815C5.93981 45.335 5.42195 44.8959 5.07842 44.33C4.71804 43.7771 4.54359 43.1237 4.58049 42.4648C4.61739 41.8059 4.86369 41.176 5.28354 40.6668C6.53834 39.0284 7.88638 37.4539 9.01331 35.7276C10.079 34.0971 10.8782 32.3068 11.7813 30.5858C11.8331 30.4675 11.8759 30.3455 11.9092 30.2208C10.9608 29.9038 10.023 29.6454 9.13053 29.2777C3.24283 26.8507 -0.548211 20.6273 0.0725281 14.4599C0.773191 7.5918 5.54463 2.25292 12.0451 0.979472C20.7914 -0.730891 28.0298 5.26072 29.5963 12.9414C30.2676 16.1596 29.8867 19.3832 29.3432 22.5961Z" fill="#F1F4FF"/>
</svg>
