<svg width="30" height="30" viewBox="0 0 30 30" fill="none" xmlns="http://www.w3.org/2000/svg">
<path fill-rule="evenodd" clip-rule="evenodd" d="M0.75 13.1428C0.75 6.29846 6.29849 0.75 13.1429 0.75C19.9873 0.75 25.5358 6.29846 25.5358 13.1428C25.5358 16.1148 24.4896 18.8425 22.7454 20.9776L28.8839 27.1161C29.372 27.6043 29.372 28.3957 28.8839 28.8839C28.3957 29.372 27.6043 29.372 27.1161 28.8839L20.9776 22.7454C18.8425 24.4895 16.1149 25.5357 13.1429 25.5357C6.29849 25.5357 0.75 19.9872 0.75 13.1428ZM13.1429 3.25C7.67919 3.25 3.25 7.67918 3.25 13.1428C3.25 18.6065 7.67919 23.0357 13.1429 23.0357C18.6066 23.0357 23.0358 18.6065 23.0358 13.1428C23.0358 7.67918 18.6066 3.25 13.1429 3.25Z" fill="#5270EE"/>
</svg>
