<svg width="24" height="16" viewBox="0 0 24 16" fill="none" xmlns="http://www.w3.org/2000/svg">
<path fill-rule="evenodd" clip-rule="evenodd" d="M7.5545 0.453321C8.04047 0.943649 8.03694 1.7351 7.54661 2.22107L5.19598 4.55082C4.23782 5.50047 3.59555 6.13969 3.16372 6.6774C3.14392 6.70206 3.1248 6.72622 3.10633 6.74992H22.6667C23.357 6.74992 23.9167 7.30956 23.9167 7.99992C23.9167 8.69027 23.357 9.24992 22.6667 9.24992H3.10633C3.1248 9.27361 3.14392 9.29778 3.16372 9.32244C3.59555 9.86015 4.23782 10.4994 5.19598 11.449L7.54661 13.7788C8.03694 14.2647 8.04047 15.0562 7.5545 15.5465C7.06852 16.0368 6.27707 16.0404 5.78675 15.5544L3.38486 13.1739C2.49122 12.2882 1.74591 11.5496 1.2145 10.8878C0.657119 10.1938 0.233165 9.4644 0.119895 8.57574C0.0711596 8.19339 0.0711596 7.80645 0.119895 7.42409C0.233165 6.53544 0.657119 5.80603 1.2145 5.11199C1.7459 4.45029 2.49121 3.71164 3.38484 2.826C3.40188 2.80911 3.41897 2.79217 3.43612 2.77518L5.78675 0.445434C6.27708 -0.0405387 7.06852 -0.0370076 7.5545 0.453321Z" fill="white"/>
</svg>
