<svg width="22" height="22" viewBox="0 0 22 22" xmlns="http://www.w3.org/2000/svg">
<path d="M21.9967 5.54092C21.9967 4.57006 21.781 3.65075 21.2826 2.81305C20.1656 0.951223 18.5159 0.0147233 16.3472 0.00441326C14.5642 -0.00331931 12.7822 0.00441326 10.9992 0.00441326C9.20286 0.00441326 7.4059 0.00441326 5.60837 0.00441326C4.99914 -0.00682373 4.39229 0.0831798 3.81255 0.270755C1.46769 1.07236 0.00268086 3.12322 0.000962376 5.60279C0.000962376 9.20388 0.000962376 12.8044 0.000962376 16.4043C-0.00571921 16.9994 0.082753 17.5916 0.263031 18.1587C0.61996 19.2795 1.32639 20.2564 2.27884 20.9466C3.2313 21.6368 4.37974 22.0039 5.55595 21.9941C9.18539 22.001 12.8148 22.001 16.4443 21.9941C17.0323 22.0002 17.6174 21.9102 18.1765 21.7278C20.4964 20.9476 21.9915 18.8925 21.9967 16.4456C22.0041 12.8124 22.0041 9.17752 21.9967 5.54092ZM10.9752 15.5778C8.41809 15.552 6.37739 13.472 6.41605 10.9821C6.45558 8.43291 8.51346 6.38722 11.013 6.41901C13.6182 6.45166 15.5988 8.52999 15.5773 11.0302C15.5765 11.6317 15.4566 12.2272 15.2243 12.7821C14.9921 13.337 14.6523 13.8405 14.2243 14.2633C13.7964 14.6862 13.289 15.02 12.7313 15.2456C12.1736 15.4713 11.5768 15.5842 10.9752 15.5778ZM16.9589 6.41213C16.6131 6.38614 16.2899 6.23044 16.0541 5.97623C15.8182 5.72201 15.6872 5.38807 15.6872 5.04132C15.6872 4.69457 15.8182 4.36062 16.0541 4.10641C16.2899 3.8522 16.6131 3.69649 16.9589 3.6705C17.1476 3.65632 17.3372 3.68124 17.5158 3.74371C17.6944 3.80617 17.8582 3.90483 17.997 4.03351C18.1357 4.16219 18.2463 4.31811 18.322 4.49153C18.3977 4.66495 18.4368 4.85211 18.4368 5.04132C18.4368 5.23053 18.3977 5.41769 18.322 5.59111C18.2463 5.76452 18.1357 5.92045 17.997 6.04913C17.8582 6.17781 17.6944 6.27647 17.5158 6.33893C17.3372 6.40139 17.1476 6.42631 16.9589 6.41213Z"/>
</svg>
