<svg width="22" height="19" viewBox="0 0 22 19"  xmlns="http://www.w3.org/2000/svg">
<path d="M21.9998 2.22363C21.635 2.65609 21.2883 3.09721 20.8994 3.50286C20.5916 3.82288 20.2277 4.08755 19.9008 4.38941C19.8217 4.46272 19.7736 4.56361 19.7663 4.67138C19.8301 7.4971 19.0488 10.0754 17.4975 12.4203C16.1522 14.487 14.2133 16.0957 11.9371 17.0338C10.6998 17.5427 9.39021 17.853 8.0566 17.9532C6.45714 18.091 4.84603 17.9348 3.30252 17.4922C2.17022 17.1651 1.08924 16.6803 0.0911723 16.0521C0.0687515 16.0382 0.0506417 16.0175 -0.00109863 15.9742C2.44967 16.1939 4.63397 15.5997 6.6277 14.0956C5.26866 14.016 4.17693 13.4971 3.31201 12.5171C2.89808 12.0483 2.52469 11.3728 2.4445 10.9456C3.09039 11.0217 3.72852 11.0398 4.39252 10.8539C1.94779 10.2432 0.777595 8.10081 0.843995 6.35626C1.46143 6.6659 2.09611 6.87521 2.84979 6.89251C1.71668 6.06391 1.0613 5.00437 0.901771 3.67498C0.774144 2.61458 1.00956 1.61645 1.48902 0.860505C3.92686 3.73985 7.01231 5.33219 10.7911 5.59166C10.7652 5.3097 10.7299 5.04935 10.7204 4.78814C10.641 2.68896 11.8233 0.902026 13.8144 0.249006C15.4753 -0.295033 16.9904 0.0613148 18.2986 1.2307C18.4711 1.38552 18.6073 1.44001 18.8419 1.37946C19.6583 1.18036 20.4449 0.874138 21.1814 0.468701C21.2366 0.438429 21.2944 0.412481 21.3539 0.382208C21.2737 1.0482 20.5907 1.95032 19.543 2.83687C19.8077 2.78757 20.0742 2.75037 20.3363 2.68723C20.6157 2.62265 20.8919 2.54626 21.165 2.45803C21.4298 2.37154 21.6876 2.27121 21.9489 2.17693L21.9998 2.22363Z"/>
</svg>
