<svg width="147" height="28" viewBox="0 0 147 28" fill="none" xmlns="http://www.w3.org/2000/svg">
<path d="M8.66672 12.7637C9.73889 12.7637 10.6324 12.8604 11.2578 13.0538C11.8832 13.2472 12.2406 13.8274 12.33 14.7943C12.33 15.5679 12.0619 16.1481 11.5258 16.4382C10.9898 16.7282 10.275 16.8249 9.47085 16.8249H6.61172V12.7637H8.66672ZM8.93476 5.12484C9.64954 5.12484 10.275 5.12484 10.8111 5.31823C11.3471 5.51162 11.6152 5.99509 11.6152 6.86535C11.6152 7.54221 11.3471 8.02569 10.9898 8.31577C10.543 8.60586 10.0069 8.79925 9.3815 8.79925H6.61172V5.12484H8.93476ZM9.82823 21.8531C12.5087 21.8531 14.5637 21.3696 16.1719 20.4026C17.6908 19.4357 18.495 17.6952 18.5843 15.2778C18.5843 14.1175 18.3163 13.0538 17.6908 12.0869C17.1547 11.2166 16.2613 10.5398 15.1891 10.2497C15.9039 9.7662 16.44 9.18603 16.976 8.41247C17.5121 7.63891 17.7802 6.67196 17.7802 5.51162C17.6908 3.38433 16.976 1.9339 15.3678 1.16034C13.8489 0.38678 11.8832 0 9.56019 0H0V21.8531H9.82823Z" fill="black"/>
<path d="M25.196 21.8531V0H19.3885V21.8531H25.196Z" fill="black"/>
<path d="M34.3095 9.7663C35.0243 9.7663 35.6497 10.1531 36.0964 10.8299C36.5432 11.6035 36.7219 12.5705 36.7219 13.7308C36.7219 15.1812 36.4538 16.3416 36.0964 17.0184C35.6497 17.6953 35.1136 18.0821 34.3095 18.0821C33.5947 18.0821 32.9693 17.792 32.5225 17.0184C32.0758 16.3416 31.8078 15.2779 31.8078 13.7308C31.8078 12.7638 31.9865 11.8936 32.3438 11.0233C32.7012 10.2498 33.3267 9.86299 34.3095 9.7663ZM26.1789 14.1176C26.2682 16.825 26.983 18.8556 28.5019 20.3061C30.0208 21.6598 31.8971 22.3366 34.3095 22.3366C36.6325 22.3366 38.5982 21.6598 40.1171 20.2094C41.636 18.7589 42.4401 16.6316 42.4401 13.7308C42.4401 11.2167 41.7253 9.18613 40.2958 7.7357C38.8662 6.28528 36.9006 5.51172 34.3095 5.51172C31.8971 5.51172 29.9315 6.28528 28.5019 7.7357C26.983 9.18613 26.1789 11.3134 26.1789 14.1176Z" fill="black"/>
<path d="M51.1962 9.7663C51.9109 9.7663 52.5364 10.1531 52.8938 10.8299C53.3405 11.6035 53.5192 12.5705 53.5192 13.7308C53.5192 15.1812 53.3405 16.3416 52.8938 17.0184C52.447 17.6953 51.9109 18.0821 51.1068 18.0821C50.392 18.0821 49.7666 17.792 49.3199 17.0184C48.8731 16.3416 48.6944 15.2779 48.6051 13.7308C48.6051 12.7638 48.7838 11.8936 49.1412 11.0233C49.6773 10.2498 50.3027 9.86299 51.1962 9.7663ZM43.1549 14.1176C43.2442 16.825 43.959 18.8556 45.4779 20.3061C46.9968 21.6598 48.8731 22.3366 51.1962 22.3366C53.5192 22.3366 55.3955 21.6598 56.9144 20.2094C58.4333 18.7589 59.1481 16.6316 59.2375 13.7308C59.2375 11.2167 58.5227 9.18613 57.0931 7.7357C55.6636 6.28528 53.6979 5.51172 51.1962 5.51172C48.7838 5.51172 46.8181 6.28528 45.3886 7.7357C43.959 9.18613 43.1549 11.3134 43.1549 14.1176Z" fill="black"/>
<path d="M60.1309 21.8532H65.7598V14.0209C65.7598 13.0539 65.8492 12.1837 66.1172 11.5068C66.3853 10.8299 66.9213 10.4432 67.7255 10.4432C68.4402 10.4432 68.9763 10.7333 69.2444 11.2167C69.5124 11.7002 69.6911 12.5705 69.6018 13.7308V21.8532H75.2307V14.0209C75.2307 13.0539 75.32 12.1837 75.5881 11.5068C75.8561 10.8299 76.3922 10.4432 77.1963 10.4432C77.9111 10.4432 78.4472 10.7333 78.7152 11.2167C78.9833 11.7002 79.162 12.5705 79.0726 13.7308V21.8532H84.9695V12.4738C84.9695 10.2498 84.6122 8.60596 83.808 7.34892C83.0039 6.09189 81.5743 5.51172 79.5193 5.51172C78.4472 5.51172 77.5537 5.8018 76.7496 6.28528C75.9454 6.76875 75.2307 7.54231 74.6052 8.41257C74.2478 7.54231 73.7118 6.86545 72.997 6.28528C72.2822 5.8018 71.21 5.51172 69.9592 5.51172C68.887 5.51172 67.9935 5.8985 67.1894 6.47867C66.3853 7.05884 65.7598 7.7357 65.4024 8.31587V5.99519H60.2203V21.8532H60.1309Z" fill="black"/>
<path d="M92.2067 0H86.4884V21.8531H91.5812V19.6291H91.6706C92.028 20.4026 92.5641 21.0795 93.2788 21.563C93.9936 22.0465 94.8871 22.3365 96.138 22.3365C98.461 22.2399 100.159 21.4663 101.141 19.8225C102.124 18.1787 102.66 16.2448 102.66 13.8274C102.66 11.41 102.035 9.37942 100.873 7.8323C99.7119 6.28518 98.2823 5.51162 96.406 5.51162C95.6019 5.51162 94.7977 5.70501 94.083 5.99509C93.3682 6.28518 92.8321 6.86535 92.2067 7.54221V0ZM94.4404 17.7919C93.5469 17.6952 92.9214 17.3084 92.5641 16.5348C92.2067 15.7613 92.028 14.891 92.028 13.9241C92.028 13.0538 92.2067 12.2803 92.5641 11.5067C92.9214 10.8298 93.5469 10.4431 94.4404 10.3464C95.3338 10.3464 95.9593 10.8298 96.3167 11.5067C96.674 12.2803 96.8527 13.0538 96.8527 13.9241C96.8527 14.7943 96.674 15.6646 96.3167 16.4382C95.9593 17.3084 95.3338 17.6952 94.4404 17.7919Z" fill="black"/>
<path d="M108.736 12.1834C108.736 11.3132 109.004 10.6363 109.451 10.1528C109.897 9.66935 110.523 9.37926 111.327 9.37926C112.042 9.37926 112.578 9.66935 113.025 10.2495C113.471 10.8297 113.739 11.4099 113.739 12.1834H108.736ZM119.368 15.3744C119.368 12.4735 118.654 10.0561 117.224 8.31562C115.794 6.5751 113.739 5.60815 111.148 5.60815C108.825 5.60815 106.949 6.38172 105.519 7.92884C104.09 9.47596 103.286 11.5066 103.286 14.1173C103.375 16.8248 104.09 18.8554 105.609 20.2091C107.128 21.6595 109.004 22.3364 111.238 22.3364C112.935 22.3364 114.454 21.9496 115.973 21.1761C117.403 20.4025 118.475 19.0488 119.011 17.1149H113.561C113.382 17.5983 113.025 17.8884 112.667 18.1785C112.31 18.3719 111.863 18.5653 111.416 18.5653C110.702 18.5653 109.987 18.2752 109.54 17.695C109.004 17.1149 108.736 16.3413 108.736 15.471L119.368 15.3744Z" fill="black"/>
<path d="M120.441 21.8529H126.069V15.3744C126.069 13.6338 126.337 12.4735 126.963 11.7966C127.499 11.1198 128.392 10.733 129.554 10.733C129.733 10.733 130.09 10.733 130.358 10.733C130.537 10.733 131.162 10.8297 131.341 10.8297V5.70485C131.252 5.60815 130.626 5.60815 130.537 5.60815C130.358 5.60815 130.179 5.60815 130.001 5.60815C128.929 5.60815 128.035 5.89824 127.32 6.47841C126.606 7.05858 126.069 7.73545 125.712 8.99248H125.623V6.09163H120.441V21.8529Z" fill="black"/>
<path d="M139.114 10.0563C140.008 10.0563 140.722 10.4431 141.08 11.12C141.437 11.7968 141.616 12.5704 141.616 13.5373C141.616 14.4076 141.437 15.1812 141.08 15.858C140.722 16.5349 140.008 16.825 139.114 16.825C138.31 16.825 137.774 16.4382 137.417 15.858C137.059 15.2779 136.88 14.5043 136.88 13.7307C136.88 12.6671 137.059 11.7968 137.327 11.12C137.685 10.4431 138.221 10.0563 139.114 10.0563ZM131.609 21.8531C131.698 23.1102 132.949 25.0441 134.111 25.9143C135.272 26.7846 137.149 27.268 139.65 27.3647C141.973 27.3647 143.403 26.978 144.564 26.2044C145.637 25.4308 146.351 24.4639 146.619 23.2069C146.887 21.9498 147.066 20.4994 146.977 18.8556V6.28522H141.705V8.21912C141.169 7.44556 140.812 7.05878 140.008 6.5753C139.293 6.09183 138.489 5.89844 137.595 5.89844C135.272 5.99513 133.843 6.86539 132.86 8.5092C131.877 10.153 131.43 11.7968 131.43 13.8274C131.43 15.9547 131.966 17.6952 133.039 19.1457C134.111 20.5961 135.63 21.3696 137.685 21.3696C138.667 21.3696 139.561 21.1763 140.186 20.8862C140.812 20.5961 141.08 20.1126 141.527 19.7258V20.9829C141.527 22.2399 141.169 22.53 140.812 23.0135C140.454 23.4969 140.008 23.5936 139.204 23.4969C138.935 23.4969 138.399 23.4969 138.221 23.4002C138.042 23.3035 137.774 23.1102 137.595 23.0135C137.506 22.9168 137.149 22.6267 137.149 22.4333C137.059 22.3366 136.97 22.0465 136.97 21.9498L131.609 21.8531Z" fill="black"/>
</svg>
