<svg width="71" height="70" viewBox="0 0 71 70" fill="none" xmlns="http://www.w3.org/2000/svg">
<path fill-rule="evenodd" clip-rule="evenodd" d="M65.2618 17.4394L65.2214 17.278L65.181 17.1165V16.955V16.8339L65.1406 16.6724L65.1002 16.4706L65.0598 16.3495L65.0194 16.188L64.9789 16.0265L64.9385 15.8651L64.8981 15.7036L64.8577 15.5825L64.8173 15.421L64.7365 15.2595L64.6961 15.098L64.6557 14.9769L64.5748 14.8155L64.494 14.654L64.4536 14.5329L64.3728 14.3714L64.292 14.2099L64.2112 14.0888L64.1303 13.9273L64.0495 13.7659L63.9687 13.6448L63.8879 13.4833L63.8071 13.3622L63.7262 13.2007L63.605 13.0392L63.5242 12.9585L63.4838 12.9181V12.8777L63.4434 12.797L63.403 12.7566L63.3626 12.7163L63.3221 12.6759L63.2817 12.5952L63.2413 12.5548L63.2009 12.5144L63.1605 12.4337L63.0797 12.3529L63.0393 12.3126L62.9989 12.2318L62.9585 12.1915L62.8776 12.1511L62.8372 12.0704L62.7564 11.9896L62.6756 11.9089L62.5948 11.7878L62.5139 11.707L62.4331 11.6263L62.3523 11.5456L62.2715 11.4648L62.1907 11.3841L62.1098 11.3437L62.029 11.263L61.9482 11.1822L61.8674 11.1015L61.7866 11.0611L61.7057 10.9804L61.6249 10.8997L61.5037 10.8189L61.3825 10.7382L61.3017 10.6574L61.1804 10.5767L61.0592 10.496L60.938 10.4152L60.8571 10.3749L60.7359 10.2941L60.6147 10.2134L60.4935 10.1326L60.3722 10.0923L60.251 10.0519L60.1298 9.9308L60.0085 9.89043L59.8873 9.85006L59.7661 9.76932L59.6449 9.72895L59.5236 9.68858L59.4024 9.60784L59.2408 9.56747L59.1195 9.5271L58.9983 9.48674L58.8771 9.406H58.7154L58.5942 9.32526H58.473L58.3517 9.28489L58.1901 9.24452L58.0689 9.20415L57.9072 9.16378H57.786L57.6648 9.12341L57.3819 9.04268H57.1799L56.9374 9.00231L56.6949 8.96194H56.4525L56.2504 8.92157H56.008H55.7655H55.5231H55.321H55.0785L52.7348 9.08305L52.169 7.02422L52.0882 6.78201L52.0478 6.58016L52.0074 6.49942L51.967 6.33795L51.9266 6.21684L51.8862 6.1361V6.05536L51.8458 6.01499L51.8054 5.93426L51.7245 5.77278L51.6437 5.57093L51.5629 5.36909L51.4417 5.16724L51.3608 4.9654L51.2396 4.76355L51.1184 4.56171L51.0376 4.35986L50.8759 4.19838L50.7547 3.99654L50.6335 3.79469L50.4718 3.63322L50.3506 3.43137L50.2294 3.2699L50.0273 3.10842L49.9061 2.94694L49.7445 2.78547L49.5828 2.62399L49.4212 2.46251L49.2595 2.34141L49.0575 2.17993L48.8958 2.01845L48.6938 1.89735L48.5322 1.77624L48.3301 1.65513L48.1281 1.49366L47.926 1.37255L47.724 1.29181L47.5219 1.1707L47.3199 1.0496L47.1178 0.968858L46.9158 0.847751L46.7541 0.807382L46.6733 0.767013L46.5925 0.726644L46.5117 0.686275L46.4309 0.645905H46.3096L46.2288 0.565167H46.1076L46.0268 0.524798L45.9459 0.484429H45.8247L45.7439 0.44406L45.6227 0.403691H45.5418L45.461 0.363322L45.3398 0.322953L45.2186 0.282584L45.0973 0.242215L44.9357 0.201845H44.7741L44.6528 0.161476L44.4508 0.121107H44.3295L44.2083 0.0807382L44.0467 0.0403691H43.885H43.7234H43.6022L43.4405 0H43.2789H43.1577H42.9556H42.8344H42.6727H42.5111L42.3495 0.0403691H42.2282H42.0666H41.905L41.7837 0.0807382L41.6221 0.121107H41.4604L41.3392 0.161476L41.1776 0.201845H41.0159L40.8947 0.242215L40.7331 0.282584L40.6118 0.322953H40.5714H40.531L40.4906 0.363322H40.4098L40.3694 0.403691H40.329H40.2886L40.2077 0.44406H40.1673L40.1269 0.484429H40.0461H40.0057L39.9653 0.524798H39.8845L39.7632 0.565167L39.5208 0.686275L39.2783 0.767013L39.0763 0.847751L38.8742 0.968858L38.6318 1.08997L38.4701 1.21107L38.2277 1.29181L38.0256 1.41292L37.8236 1.53403L37.6619 1.65513L37.4599 1.81661L37.2578 1.93772L37.0558 2.05882L35.4798 3.31027L33.9038 2.05882L33.7018 1.93772L33.5401 1.81661L33.3381 1.65513L33.136 1.53403L32.9744 1.41292L32.7723 1.29181L32.5299 1.21107L32.3278 1.08997L32.1258 0.968858L31.9237 0.847751L31.7217 0.767013L31.4792 0.686275L31.1964 0.565167L31.0347 0.524798V0.484429H30.9943H30.9539H30.9135H30.8731L30.8327 0.44406H30.7519V0.403691H30.671H30.6306H30.5902L30.5094 0.363322L30.469 0.322953H30.3882L30.2265 0.282584L30.1053 0.242215L29.9437 0.201845H29.8224L29.6608 0.161476L29.4991 0.121107H29.3375L29.2163 0.0807382L29.0546 0.0403691H28.893H28.7718H28.6101L28.4485 0H28.3273H28.1656H28.004H27.8423H27.7211H27.5595L27.3978 0.0403691H27.2362H27.115H26.9533L26.7917 0.0807382L26.6705 0.121107H26.5088L26.3472 0.161476L26.226 0.201845H26.0643L25.9027 0.242215L25.7814 0.282584L25.6198 0.322953L25.539 0.363322L25.4582 0.403691H25.3369L25.2561 0.44406L25.1753 0.484429H25.0541L24.9733 0.524798L24.8924 0.565167H24.7712L24.6904 0.645905H24.5692L24.4883 0.686275L24.3671 0.767013H24.2863L24.2055 0.847751H24.0842L23.8418 0.968858L23.6801 1.08997L23.4377 1.21107L23.2356 1.29181L23.0336 1.41292L22.8719 1.53403L22.6699 1.65513L22.4678 1.77624L22.2658 1.89735L22.1042 2.05882L21.9021 2.17993L21.7405 2.34141L21.5788 2.50288L21.4172 2.62399L21.2556 2.78547L21.0939 2.94694L20.9323 3.14879L20.7706 3.31027L20.6494 3.47174L20.4878 3.63322L20.3665 3.83506L20.2049 3.99654L20.0837 4.19838L19.9624 4.35986L19.8816 4.56171L19.72 4.76355L19.6392 4.9654L19.5179 5.16724L19.4371 5.36909L19.3563 5.57093L19.2351 5.77278L19.1542 5.93426V6.01499L19.1138 6.05536L19.0734 6.1361V6.21684L19.033 6.33795L18.9926 6.49942L18.9522 6.58016L18.9118 6.78201L18.7906 7.02422L18.2652 9.08305L15.9215 8.96194L15.7194 8.92157H15.4365H15.2345H14.992L14.7496 8.96194H14.5475H14.3051L14.0626 9.00231L13.8606 9.04268H13.6181L13.3352 9.12341L13.1736 9.16378H13.0524L12.8907 9.20415L12.7695 9.24452L12.6483 9.28489L12.527 9.32526L12.3654 9.36563L12.2442 9.406L12.1229 9.44637L12.0017 9.48674L11.8805 9.5271L11.7188 9.60784H11.5976L11.4764 9.68858L11.3552 9.72895L11.2339 9.76932L11.1127 9.85006L10.9915 9.89043L10.8702 9.97116L10.749 10.0519L10.6278 10.0923L10.5065 10.173L10.3853 10.2134L10.3045 10.2941L10.1429 10.3749L10.062 10.4556L9.94081 10.496L9.81958 10.5767L9.69835 10.6574L9.61753 10.7382L9.4963 10.8189L9.41548 10.8997L9.29425 10.9804L9.25384 11.0611L9.17302 11.1015L9.05179 11.1822L8.97097 11.263L8.89015 11.3437L8.80933 11.4245L8.72851 11.5052L8.6477 11.5456L8.56688 11.6263L8.48606 11.707L8.40524 11.8281L8.32442 11.9089L8.2436 11.9896L8.16278 12.1107L8.12237 12.1511H8.08196L8.04155 12.2318L8.00114 12.3126L7.92032 12.3529L7.87991 12.4337L7.8395 12.5144L7.79909 12.5548L7.75868 12.5952L7.71827 12.6759L7.63745 12.7163V12.7566L7.59704 12.797L7.55663 12.8777L7.51622 12.9181L7.47581 12.9585L7.4354 13.0392L7.39499 13.12L7.31417 13.2007L7.27376 13.2814L7.23335 13.3218L7.19294 13.4025L7.11212 13.4833L7.07171 13.564L7.0313 13.6448L6.99089 13.7255L6.95048 13.8062L6.91007 13.8466L6.86966 13.9273L6.82925 14.0081L6.78884 14.0888L6.74844 14.1695L6.66762 14.2907V14.331L6.62721 14.4118L6.5868 14.4925L6.54639 14.5732L6.50598 14.654L6.46557 14.7347L6.42516 14.8155V14.8962L6.34434 14.9769V15.0577L6.30393 15.1788L6.26352 15.2595L6.22311 15.3403V15.421L6.1827 15.5017L6.14229 15.6228L6.10188 15.7036L6.06147 15.8651L6.02106 15.9862L5.98065 16.1476V16.2687L5.94024 16.3898L5.89983 16.5513V16.6724L5.85942 16.8339L5.81901 16.955L5.7786 17.1165V17.2376V17.3587V17.5202L5.73819 17.6413V17.8028V17.9239V18.0854V18.2065V18.3679V18.5294V18.6505V18.7716L5.7786 18.9331V19.0542V19.2157V19.3368L5.81901 19.4983V19.6194L5.85942 19.7405L5.89983 19.902V20.0634L5.94024 20.1845L5.98065 20.3057V20.4268L6.02106 20.5479L6.06147 20.6286V20.7497L6.10188 20.9112L6.14229 20.9919V21.113L6.1827 21.2341L6.22311 21.3552L6.91007 23.4544L4.9704 24.5444L4.80876 24.6251L4.68754 24.7059L4.56631 24.7866L4.40467 24.8674L4.28344 24.9481L4.20262 25.0288L4.08139 25.0692L3.96016 25.1499L3.87934 25.2307L3.75811 25.3114L3.67729 25.3922L3.55606 25.4729L3.47524 25.5536L3.35401 25.6344L3.23278 25.7151L3.15196 25.7958L3.07114 25.917L2.94991 25.9977L2.8691 26.0784L2.78828 26.1592L2.62664 26.3206L2.465 26.4821L2.34377 26.6436L2.18213 26.8051L2.02049 27.0069L1.89926 27.1684L1.73762 27.3702L1.61639 27.5317L1.49516 27.7336L1.37393 27.895L1.2527 28.0969L1.13147 28.3391L1.01024 28.5006L0.929425 28.7024L0.848606 28.9446L0.767786 29.1465L0.646557 29.3483L0.565737 29.5502L0.484918 29.752L0.444508 29.9942L0.363688 30.1961L0.323278 30.4383L0.242459 30.6401L0.202049 30.8824L0.161639 31.0842L0.121229 31.3264L0.0808196 31.5283L0.0404098 31.7705V31.9723V32.2145V32.4567L0 32.6586V32.9412V33.143L0.0404098 33.3852V33.5871V33.8293V34.0715L0.0808196 34.2734L0.121229 34.5156L0.161639 34.7174L0.202049 34.9596L0.242459 35.1615L0.323278 35.4037L0.363688 35.6055L0.444508 35.8478L0.484918 36.0496L0.565737 36.2514L0.646557 36.4533L0.767786 36.6551L0.848606 36.8973L0.929425 37.0992L1.01024 37.301L1.13147 37.5029L1.2527 37.7047L1.37393 37.8662L1.49516 38.0681L1.61639 38.2699L1.73762 38.4717L1.89926 38.6332L2.02049 38.8351L2.18213 38.9965L2.34377 39.158L2.465 39.3599L2.66705 39.5617L2.78828 39.6424L2.8691 39.7232L2.9095 39.8039L2.99032 39.8443L3.07114 39.925L3.15196 40.0058L3.23278 40.0461L3.3136 40.0865L3.35401 40.1672L3.43483 40.2076L3.51565 40.2883L3.59647 40.3691L3.67729 40.4095L3.75811 40.4498L3.83893 40.5306L3.87934 40.5709L3.96016 40.6113L4.04098 40.692L4.1218 40.7324L4.20262 40.8131H4.28344L4.36426 40.8939L4.44508 40.9343L4.5259 40.9746L4.60672 41.0554H4.68754L4.76836 41.1361L4.84917 41.1765L4.92999 41.2168L5.01081 41.2572L5.09163 41.2976L5.17245 41.3379L5.25327 41.3783L5.3745 41.4591L5.49573 41.4994L5.61696 41.5802L5.73819 41.6205L5.85942 41.7013L5.98065 41.7416L6.10188 41.782L6.22311 41.8224L6.38475 41.8627L6.50598 41.9435H6.62721L6.78884 41.9839L6.86966 42.0242L7.0313 42.0646L7.15253 42.105L7.31417 42.1453L7.39499 42.1857L7.55663 42.2261H7.67786H7.8395L7.96073 42.2664L8.08196 42.3068H8.20319H8.36483L8.48606 42.3472H8.6477H8.76892L8.89015 42.3875H9.05179H9.17302H9.29425H61.7057H61.8674H62.0694L62.2311 42.3472H62.4331L62.5948 42.3068H62.7564H62.9585L63.1201 42.2664L63.2817 42.2261L63.4838 42.1857L63.6454 42.1453H63.8071L63.9687 42.0646L64.1303 42.0242L64.3324 41.9435H64.494L64.6557 41.8627L64.8173 41.782L65.0194 41.7416L65.181 41.7013L65.3022 41.5802L65.4639 41.4994L65.6255 41.4591L65.7871 41.3783L65.9488 41.2976L66.1104 41.2168L66.2721 41.0957L66.4337 41.015L66.5953 40.9343L66.7166 40.8131L66.8782 40.7324L67.0398 40.6113L67.1611 40.5306L67.2419 40.4498L67.2823 40.4095L67.4035 40.3691L67.4844 40.2883L67.5248 40.248L67.6056 40.1672L67.6864 40.0865L67.7268 40.0461L67.848 40.0058L67.9289 39.925L67.9693 39.8443L68.0501 39.8039L68.1309 39.7232L68.1713 39.6424L68.2925 39.5617L68.535 39.2791L68.6562 39.1984L68.7371 39.0773L68.8583 38.9562L68.9391 38.8754L69.0199 38.7543L69.1007 38.6332L69.222 38.5121L69.3028 38.4314L69.3432 38.3103L69.424 38.1892L69.5048 38.0681L69.5857 37.9469L69.7069 37.8258L69.7473 37.7047L69.8281 37.5836L69.8685 37.4625L69.9493 37.3414L70.0302 37.2203L70.0706 37.0992L70.1514 36.9781L70.1918 36.857L70.2322 36.7359L70.313 36.6148L70.3534 36.4533L70.3939 36.3725L70.4747 36.2111V36.1303L70.5555 35.9689V35.8478L70.6363 35.7266L70.6767 35.5652L70.7171 35.4037L70.7575 35.323V35.2422V35.1615L70.798 35.0807V35L70.8384 34.9193V34.8385V34.7982L70.8788 34.7174V34.5963L70.9192 34.5156V34.4348V34.3541V34.2734L70.9596 34.1522V34.0715V33.9504L71 33.91V33.8293V33.7486V33.6678V33.6275V33.5467V33.466V33.3852V33.3449V33.2641V33.1834V33.1027V33.0623V32.9815V32.9008V32.7393V32.5375V32.3356V32.1742V31.9723L70.9596 31.7705L70.9192 31.609V31.4475L70.8788 31.2457L70.8384 31.0438V30.8824L70.7575 30.6805V30.519L70.6767 30.3172L70.6363 30.1557L70.5555 29.9539L70.5151 29.7924L70.4747 29.6309L70.3939 29.4291L70.313 29.2676L70.2726 29.1061L70.1918 28.9446L70.111 28.7832L70.0302 28.5813L69.9493 28.4198L69.8685 28.2584L69.7473 28.0969L69.6665 27.9354L69.5452 27.8143L69.424 27.6125L69.3432 27.4913L69.2624 27.3702L69.222 27.2895L69.1412 27.2088L69.0603 27.128L69.0199 27.0877L68.9795 27.0069L68.8987 26.9262L68.8583 26.8454L68.7775 26.7647L68.6966 26.7243L68.6562 26.6436L68.6158 26.5629L68.535 26.5225L68.4946 26.4418L68.4542 26.4014L68.3734 26.3206L68.333 26.2803L68.2521 26.1995L68.1309 26.1188L68.0097 25.9977L67.9289 25.917L67.848 25.8362L67.7268 25.7151L67.646 25.6344L67.5248 25.5536L67.4035 25.4729L67.3227 25.3922L67.2015 25.3114L67.1207 25.2307L67.0398 25.1499L66.9186 25.1096L66.8378 25.0288L66.7166 24.9885L66.5953 24.8674L66.4741 24.7866L66.3529 24.7059L66.2316 24.6251L66.07 24.5848L65.9488 24.504L64.0899 23.4544L64.7769 21.3552L64.8173 21.2745V21.1534V21.0727L64.8577 21.0323L64.8981 20.9516V20.8708V20.8304L64.9385 20.7497L64.9789 20.6286V20.5479L65.0194 20.4671V20.3864V20.3057L65.0598 20.2249L65.1002 20.1442V20.0634V19.9827L65.1406 19.8616V19.7001L65.181 19.579V19.4579V19.3368L65.2214 19.1753V19.0542L65.2618 18.9331V18.7716V18.6505V18.5294V18.3679V18.2468V18.0854V17.9239V17.7624V17.6009V17.4394Z" fill="white"/>
<path fill-rule="evenodd" clip-rule="evenodd" d="M11.9208 26.4015C11.1531 26.1189 10.3045 25.9978 9.29421 25.9978C8.00109 25.9978 6.82921 26.3611 5.69774 27.1281C5.29364 27.4107 4.88954 27.6933 4.48544 28.097C3.19233 29.4292 2.58618 31.0439 2.58618 32.9413C2.58618 34.7983 3.23274 36.413 4.48544 37.7452C5.05118 38.3104 5.69773 38.7544 6.34429 39.0774C7.27372 39.5618 8.24355 39.8444 9.29421 39.8444H32.2066L14.4667 27.8548C14.0222 27.5722 13.6181 27.2896 13.2544 27.0878C12.729 26.7648 12.2845 26.5226 11.9208 26.4015Z" fill="#F4C500"/>
<path fill-rule="evenodd" clip-rule="evenodd" d="M19.5179 12.918C19.3158 12.7969 19.1542 12.7162 18.9926 12.5547C17.5378 11.5859 15.8406 11.2629 13.8201 11.6262C12.729 11.8281 11.7996 12.2721 10.9914 12.918C10.6681 13.2006 10.3449 13.4832 10.062 13.8062C9.85995 14.008 9.69831 14.2906 9.53667 14.4924C9.13257 15.098 8.76888 15.7035 8.60724 16.3898C8.28396 17.399 8.20314 18.4486 8.4456 19.6193C8.64765 20.5882 8.97093 21.4763 9.41544 22.2029C9.90035 22.9699 10.5065 23.5755 11.2339 24.0195L31.2367 37.6643L22.1849 17.0357C22.0637 16.8338 21.9829 16.5916 21.9021 16.3898C21.5384 15.5017 21.2151 14.8557 20.8918 14.3713C20.7706 14.2098 20.6089 14.008 20.4473 13.8062C20.2049 13.4832 19.8816 13.2006 19.5179 12.918Z" fill="#E66A0C"/>
<path fill-rule="evenodd" clip-rule="evenodd" d="M30.3074 2.98727C30.1053 2.90653 29.9033 2.86617 29.7012 2.78543C28.5697 2.46247 27.4383 2.46247 26.3068 2.78543C25.9027 2.90653 25.539 3.02764 25.1349 3.18912C23.3973 3.95613 22.185 5.20757 21.5384 6.90307C21.498 6.98381 21.4576 7.10492 21.4172 7.18566C20.8515 8.92153 20.8515 10.5767 21.5384 12.1914L31.3176 34.677L34.5504 11.9896C34.7524 10.6978 34.8333 9.72891 34.7928 9.12337C34.7524 8.51784 34.6312 7.9123 34.3887 7.22603C34.3483 7.02418 34.2271 6.78197 34.1463 6.53975C33.4997 4.88462 32.2066 3.71392 30.3074 2.98727Z" fill="#C1163B"/>
<path fill-rule="evenodd" clip-rule="evenodd" d="M57.7456 27.0874C57.382 27.2892 56.9779 27.5718 56.5334 27.8544L38.7935 39.8036H61.7058C63.0797 39.8036 64.3324 39.3999 65.5447 38.5118C65.868 38.31 66.1509 38.0274 66.4742 37.7044C66.5146 37.6641 66.5954 37.5833 66.6762 37.5026C67.444 36.6952 67.9289 35.7667 68.2118 34.7171C68.2926 34.3942 68.3734 34.0712 68.4138 33.7483C68.4542 33.4657 68.4542 33.1831 68.4542 32.9005C68.4542 31.3665 68.0501 29.9939 67.1611 28.8636C66.9591 28.581 66.757 28.2984 66.5146 28.0562C66.1105 27.6525 65.7064 27.3699 65.3023 27.0874C64.8174 26.724 64.292 26.4818 63.7667 26.28C63.1202 26.0781 62.3928 25.957 61.7058 25.957C60.6956 25.957 59.8065 26.0781 59.0792 26.3607C58.7155 26.5222 58.271 26.7644 57.7456 27.0874Z" fill="#00A239"/>
<path fill-rule="evenodd" clip-rule="evenodd" d="M49.5424 7.18566C49.502 7.10492 49.4616 6.98381 49.4212 6.90307C48.7746 5.1672 47.5624 3.95613 45.8247 3.18912C45.4206 3.02764 45.0569 2.86617 44.6528 2.78543C43.5214 2.46247 42.3899 2.46247 41.2584 2.78543C41.0564 2.8258 40.8543 2.90653 40.6523 2.98727C38.753 3.71392 37.4599 4.88462 36.7325 6.49938C36.6517 6.7416 36.5305 6.98381 36.4497 7.18566C36.1264 8.19488 36.0051 9.16374 36.1264 10.1326V10.2537H37.9852C38.551 10.2941 38.9147 10.3748 38.9955 10.5363C39.1167 10.6574 38.8742 10.8996 38.2277 11.1418L37.7428 11.4648L37.177 11.9492C36.9346 12.1511 36.7729 12.5144 36.6921 12.8777C36.6517 13.1603 36.6113 13.4429 36.6517 13.7658C36.6517 13.8869 36.6517 14.008 36.6921 14.1695L39.6016 34.677L49.4212 12.1914C50.1082 10.6574 50.1486 8.9619 49.5424 7.18566Z" fill="#734E97"/>
<path fill-rule="evenodd" clip-rule="evenodd" d="M62.716 18.0449C62.6756 16.8338 62.2715 15.6631 61.5037 14.4924C61.3421 14.2906 61.1804 14.008 60.9784 13.8062C60.6955 13.4832 60.4127 13.2006 60.049 12.918C59.2004 12.2721 58.2709 11.8281 57.1799 11.6262C55.1998 11.2629 53.4622 11.5859 52.0074 12.5547C51.8458 12.6758 51.6437 12.7969 51.4821 12.918C51.1184 13.241 50.8355 13.4832 50.5527 13.8062C50.3506 14.008 50.2294 14.2098 50.1082 14.3713C49.7445 14.9365 49.3 15.8246 48.815 17.0357L39.7632 37.6643L59.7661 24.0195C60.5339 23.5351 61.0996 22.9296 61.5845 22.2029C61.6249 22.1626 61.6654 22.0818 61.7058 22.0011C61.9482 21.5974 62.1503 21.113 62.3119 20.6285C62.3927 20.3056 62.514 19.9826 62.5544 19.6193C62.6756 19.0541 62.716 18.5293 62.716 18.0449Z" fill="#0688CA"/>
<path fill-rule="evenodd" clip-rule="evenodd" d="M34.1059 49.5732V54.8212H36.6921C37.4195 54.8212 38.0256 54.5386 38.5105 53.9734C38.9954 53.4082 39.1975 52.7623 39.1975 51.955C39.1571 51.309 38.8742 50.7439 38.3489 50.2998C37.864 49.8154 37.2578 49.5732 36.6113 49.5732H34.1059ZM34.1059 58.737V64.4694H37.0558C37.9852 64.4694 38.7934 64.2675 39.5612 63.8235C40.2886 63.4198 40.6522 62.7335 40.6522 61.8454C40.6522 59.948 39.44 58.8984 37.0558 58.737H34.1059ZM64.4536 45.3748V50.6228C62.9584 49.8154 61.6653 49.4117 60.5339 49.4117C60.2914 49.4117 59.7257 49.4521 58.8771 49.5732C56.897 49.8558 55.2806 50.7035 53.9471 52.0761C52.654 53.4486 52.0074 55.1441 52.0074 57.0818C52.0074 58.9388 52.6135 60.5132 53.8258 61.8454C54.9977 63.1776 56.5333 64.0657 58.3921 64.4694C58.8771 64.5905 59.4832 64.6308 60.2914 64.6308C61.827 64.5501 63.1605 64.1464 64.4132 63.3794V69.1522C62.918 69.7174 61.4633 69.9999 59.9277 69.9999C59.2812 69.9999 58.7154 69.9999 58.3921 69.9596C56.0484 69.7577 53.9067 69.0311 51.967 67.9007C50.0273 66.73 48.4513 65.196 47.3603 63.2179C46.2288 61.2398 45.6227 59.1003 45.6227 56.6378C45.7035 54.3771 46.35 52.3586 47.5219 50.5017C48.6938 48.6851 50.2294 47.1914 52.169 46.1418C54.1087 45.0518 56.2504 44.4463 58.5538 44.3252C60.8167 44.3252 62.7564 44.6885 64.4536 45.3748ZM12.2442 69.1926H7.11212V44.3656L21.296 57.1222V45.3748H26.5492V69.9596L12.2442 56.6378V69.1926ZM28.9334 69.1926V45.3748H39.1975C40.6118 45.5363 41.8241 46.1014 42.7536 47.0703C43.683 48.0391 44.2083 49.2502 44.3295 50.6631C44.3295 53.1257 43.4001 54.9423 41.5413 56.113C44.1275 57.2029 45.5014 59.181 45.6631 61.9665C45.6631 63.8638 45.0569 65.5593 43.8446 66.9319C42.6323 68.3044 41.0563 69.0714 39.1975 69.1926H28.9334Z" fill="#1D1D1B"/>
</svg>
