<svg width="147" height="26" viewBox="0 0 147 26" fill="none" xmlns="http://www.w3.org/2000/svg">
<path d="M21.6835 24.7161V8.37296L15.4572 24.7161H12.642L6.37537 8.37296V24.7161H0V0H8.86027L14.0476 13.6368L19.1986 0H28.0589V24.7161H21.6835Z" fill="#00AEEF"/>
<path d="M40.7251 24.716V22.9399C39.6176 24.273 37.4629 25.163 35.1673 25.163C32.4246 25.163 29.0134 23.2742 29.0134 19.271C29.0134 14.9375 32.4246 13.4876 35.1673 13.4876C37.5394 13.4876 39.6538 14.2649 40.7251 15.598V13.8219C40.7251 12.2633 39.3961 11.192 37.1004 11.192C35.2583 11.2242 33.4868 11.906 32.0984 13.1171L29.984 9.15415C32.2877 7.18475 35.3646 6.37524 38.1033 6.37524C42.4045 6.37524 46.44 7.96607 46.44 13.5279V24.716H40.7251ZM40.7251 20.1208V18.5098C40.1331 17.656 38.8 17.2452 37.5394 17.2452C36.0573 17.2452 34.684 17.9178 34.684 19.3233C34.684 20.7289 36.0573 21.3974 37.5394 21.3974C38.8 21.3974 40.1331 20.9585 40.7251 20.1006" fill="#00AEEF"/>
<path d="M46.8386 22.3845L49.2108 18.3088C50.5438 19.4929 53.3993 20.7252 55.5096 20.7252C57.2132 20.7252 57.926 20.2419 57.926 19.4606C57.926 17.2415 47.5152 19.5372 47.5152 12.2758C47.5152 9.12231 50.2579 6.37965 55.1673 6.37965C57.8529 6.34583 60.4781 7.17757 62.6542 8.75179L60.4714 12.7792C59.0118 11.5102 57.1416 10.8134 55.2076 10.8178C53.8705 10.8178 52.9844 11.3374 52.9844 12.0261C52.9844 13.9874 63.359 11.9536 63.359 19.2754C63.359 22.6866 60.3586 25.1272 55.2438 25.1272C52.0219 25.1272 48.7234 24.0559 46.8306 22.3523" fill="#00AEEF"/>
<path d="M76.2265 24.7161V14.3013C76.2265 12.1184 75.0747 11.4136 73.2583 11.4136C72.5894 11.4227 71.9315 11.5846 71.3347 11.8868C70.7379 12.1891 70.2181 12.6237 69.8149 13.1575V24.7161H64.1081V0H69.8149V9.00526C70.597 8.14874 71.5542 7.47055 72.6216 7.01677C73.689 6.56299 74.8416 6.34423 76.001 6.37537C80.0767 6.37537 81.9334 8.67099 81.9334 11.9694V24.7161H76.2265Z" fill="#00AEEF"/>
<path d="M94.4425 24.716V22.9399C93.335 24.273 91.1803 25.163 88.8847 25.163C86.142 25.163 82.7308 23.2742 82.7308 19.271C82.7308 14.9375 86.142 13.4876 88.8847 13.4876C91.2568 13.4876 93.3712 14.2649 94.4425 15.598V13.8219C94.4425 12.2633 93.1135 11.192 90.8178 11.192C88.9757 11.2242 87.2042 11.906 85.8158 13.1171L83.7014 9.15415C86.0051 7.18475 89.082 6.37524 91.8207 6.37524C96.1179 6.37524 100.157 7.96607 100.157 13.5279V24.716H94.4425ZM94.4425 20.1208V18.5098C93.8505 17.656 92.5174 17.2452 91.2568 17.2452C89.7747 17.2452 88.4014 17.9178 88.4014 19.3233C88.4014 20.7289 89.7747 21.3974 91.2568 21.3974C92.5174 21.3974 93.8505 20.9585 94.4425 20.1006" fill="#00AEEF"/>
<path d="M102.123 24.7161V0H107.83V8.92874C108.456 8.12245 109.262 7.47232 110.182 7.02932C111.102 6.58632 112.112 6.36249 113.134 6.37537C117.62 6.37537 121.023 9.89129 121.023 15.7511C121.023 21.8285 117.544 25.1632 113.134 25.1632C112.119 25.1637 111.116 24.9385 110.199 24.5038C109.281 24.0692 108.472 23.436 107.83 22.6501V24.7202L102.123 24.7161ZM111.241 20.1209C113.504 20.1209 115.208 18.4535 115.208 15.7511C115.208 13.0488 113.504 11.4136 111.241 11.4136C110.589 11.4267 109.947 11.579 109.359 11.8603C108.77 12.1416 108.249 12.5455 107.83 13.0447V18.53C108.534 19.4926 110.02 20.141 111.241 20.141" fill="#00AEEF"/>
<path d="M127.548 0H121.841V24.7161H127.548V0Z" fill="#00AEEF"/>
<path d="M128.361 15.7471C128.361 10.5598 132.252 6.37134 137.846 6.37134C143.15 6.37134 147 10.2658 147 16.3432V17.64H134.253C134.656 19.2308 136.142 20.5679 138.736 20.5679C139.996 20.5679 142.074 20.0121 143.11 19.0496L145.59 22.787C143.81 24.398 140.846 25.1591 138.103 25.1591C132.586 25.1591 128.361 21.5667 128.361 15.7471ZM137.846 10.9706C135.365 10.9706 134.402 12.4487 134.177 13.7455H141.563C141.418 12.4849 140.488 10.9706 137.858 10.9706" fill="#00AEEF"/>
</svg>
