<svg width="115" height="45" viewBox="0 0 115 45" fill="none" xmlns="http://www.w3.org/2000/svg">
<path d="M0 0H115V44.5711H0V0Z" fill="#231F20"/>
<path d="M67.3139 15.7167C65.8677 15.7167 64.7318 16.0267 63.5952 16.6456C63.5952 13.3419 63.5952 10.3482 63.699 9.31616L56.7766 10.5545V11.174L57.4997 11.2772C58.4286 11.4835 58.7401 11.9992 58.9447 13.2388C59.1529 15.7167 59.0485 28.9321 58.9447 31.1006C60.8043 31.5138 62.7677 31.8238 64.7312 31.8238C70.2068 31.8238 73.5126 28.4164 73.5126 23.0473C73.5126 18.8147 70.8267 15.7167 67.3139 15.7167ZM64.9376 30.6874C64.5241 30.6874 64.0069 30.6874 63.6978 30.5849C63.594 29.1396 63.4914 23.0473 63.594 17.6789C64.2139 17.472 64.6268 17.3688 65.144 17.3688C67.4183 17.3688 68.658 20.0531 68.658 23.3562C68.6574 27.4874 67.1075 30.6874 64.9376 30.6874ZM30.7407 9.72875H12.5574V10.6577L13.5907 10.7608C14.9331 10.9671 15.4503 11.7929 15.6561 13.7545C15.967 17.4714 15.8632 24.1831 15.6561 27.3825C15.4497 29.3447 14.9337 30.2742 13.5907 30.3762L12.5574 30.5837V31.4094H24.2318V30.5837L22.992 30.3762C21.6491 30.2736 21.1324 29.3447 20.926 27.3825C20.8222 26.0398 20.7189 23.8713 20.7189 21.1877L23.1984 21.2908C24.7484 21.2908 25.4709 22.5298 25.7811 24.2845H26.7113V16.9562H25.7811C25.4703 18.7115 24.7484 19.9499 23.1984 19.9499L20.7195 20.0537C20.7195 16.5431 20.8228 13.2394 20.9266 11.2778H24.542C27.3323 11.2778 28.7785 13.0325 29.8112 16.1305L30.8445 15.8204L30.7407 9.72875Z" fill="white"/>
<path d="M36.6298 15.5104C41.7958 15.5104 44.3785 19.021 44.3785 23.6668C44.3785 28.1063 41.4855 31.8244 36.3195 31.8244C31.1541 31.8244 28.5714 28.3132 28.5714 23.6668C28.5714 19.2273 31.4638 15.5104 36.6298 15.5104ZM36.3195 16.5431C34.0465 16.5431 33.4266 19.6405 33.4266 23.6668C33.4266 27.59 34.4599 30.7906 36.5266 30.7906C38.901 30.7906 39.5221 27.6932 39.5221 23.6668C39.5221 19.7436 38.49 16.5431 36.3195 16.5431ZM74.8549 23.7706C74.8549 19.5373 77.5408 15.5104 82.8101 15.5104C87.148 15.5104 89.2152 18.7116 89.2152 22.9442H79.6069C79.5031 26.7642 81.3627 29.5522 85.0825 29.5522C86.7357 29.5522 87.562 29.1402 88.5959 28.417L89.0082 28.9327C87.9749 30.378 85.7024 31.8244 82.8101 31.8244C78.1607 31.8238 74.8549 28.5201 74.8549 23.7706ZM79.6069 21.809L84.4627 21.7052C84.4627 19.6405 84.1524 16.5431 82.3966 16.5431C80.6408 16.5431 79.7095 19.4336 79.6069 21.809ZM101.511 16.3368C100.272 15.8198 98.6189 15.5104 96.7593 15.5104C92.9374 15.5104 90.56 17.7814 90.56 20.4663C90.56 23.1511 92.3146 24.2863 94.7971 25.1127C97.3792 26.041 98.1029 26.7642 98.1029 28.0032C98.1029 29.2422 97.1728 30.3774 95.5196 30.3774C93.5573 30.3774 92.11 29.2422 90.974 26.1442L90.2503 26.3516L90.3541 30.8943C91.5939 31.4101 93.8664 31.8238 95.8298 31.8238C99.8593 31.8238 102.443 29.7579 102.443 26.5579C102.443 24.3894 101.305 23.1511 98.6195 22.1178C95.726 20.9826 94.6939 20.26 94.6939 18.9173C94.6939 17.5751 95.6252 16.6456 96.8649 16.6456C98.7233 16.6456 99.9631 17.7814 100.894 20.5694L101.617 20.3631L101.511 16.3368ZM57.8087 15.9236C56.0529 14.8921 52.9529 15.4073 51.3003 19.1247L51.4029 15.511L44.4817 16.8531V17.4726L45.2048 17.5757C46.1355 17.6795 46.5478 18.1952 46.6516 19.5379C46.858 22.0159 46.7548 26.3528 46.6516 28.5207C46.5478 29.7585 46.1355 30.378 45.2048 30.4817L44.4817 30.5855V31.4112H54.0894V30.5855L52.8497 30.4817C51.817 30.378 51.5067 29.7585 51.4029 28.5207C51.1965 26.5585 51.1965 22.6353 51.3003 20.1574C51.8164 19.4342 54.0894 18.8153 56.1555 20.1574L57.8087 15.9236Z" fill="white"/>
</svg>
