<svg width="147" height="19" viewBox="0 0 147 19" fill="none" xmlns="http://www.w3.org/2000/svg">
<path d="M17.5654 0V3.711H16.8232C16.4521 3.5873 16.3284 3.83469 16.3284 4.08209C15.2151 7.91679 13.9781 11.6278 12.7411 15.4625C12.4937 16.3284 12.2463 17.1943 11.8752 18.0602C11.8752 18.1839 11.6278 18.3076 11.5041 18.3076H5.8139L5.6902 17.9365C4.2058 13.3596 2.7214 8.65899 1.3607 4.08209C1.237 3.71099 1.1133 3.711 0.742198 3.711H0V0H7.9168V3.711H6.3087C7.1746 7.1746 8.0405 10.6382 8.9064 13.9781H9.0301L11.8752 3.711H10.2671V0H17.5654ZM30.0591 4.948H35.3782L35.5019 6.8035C35.873 6.4324 36.1204 6.0613 36.3678 5.8139C37.8522 4.5769 39.584 4.3295 41.4395 4.948C42.8002 5.4428 43.4187 6.5561 43.4187 8.0405V14.5966H44.532V18.3076H38.5944V10.0197C38.5944 9.2775 38.347 8.9064 37.8522 8.7827C37.2337 8.659 36.7389 8.7827 36.3678 9.2775L36.1204 9.64859L35.9967 10.0197V14.5966H36.8626V18.3076H30.0591V14.5966H31.0487V8.659H30.0591V4.948ZM62.4685 8.5353H61.6026V4.8243H67.4165V14.5966H68.5298V18.3076H63.087V16.9469C62.8396 17.1943 62.7159 17.4417 62.4685 17.5654C61.1078 18.8024 58.7575 19.0498 57.1494 18.3076C55.9124 17.6891 55.2939 16.6995 55.2939 15.3388L55.1702 9.1538V8.659H54.0569V4.948H59.9945V12.8648C59.9945 13.2359 59.9945 13.607 60.1182 13.8544C60.2419 14.3492 60.7367 14.5966 61.2315 14.5966C61.7263 14.5966 62.0974 14.3492 62.3448 13.8544C62.4685 13.7307 62.4685 13.4833 62.4685 13.2359V8.5353ZM29.1932 12.4937H20.9053C20.9053 13.2359 20.9053 13.9781 21.2764 14.5966C21.5238 15.0914 22.1423 15.3388 22.6371 15.3388C23.1319 15.3388 23.7504 15.0914 23.9978 14.4729C24.1215 14.2255 24.1215 13.9781 24.2452 13.607H28.8221C28.6984 15.0914 28.0799 16.3284 26.8429 17.1943C25.977 17.8128 24.9874 18.1839 23.9978 18.3076C22.6371 18.555 21.1527 18.4313 19.792 18.0602C17.9365 17.4417 16.6995 16.2047 16.2047 14.4729C15.5862 12.4937 15.5862 10.5145 16.2047 8.5353C16.9469 6.185 18.6787 4.8243 21.1527 4.4532C22.266 4.3295 23.3793 4.32949 24.4926 4.70059C26.9666 5.44279 28.3273 7.0509 28.8221 9.64859C29.0695 10.6382 29.0695 11.5041 29.1932 12.4937ZM21.029 9.896H24.2452C24.2452 9.1538 24.2452 8.5353 23.503 8.1642C22.8845 7.7931 22.266 7.7931 21.7712 8.1642C21.029 8.5353 21.029 9.1538 21.029 9.896ZM93.6409 12.4937H85.353C85.353 13.2359 85.353 13.9781 85.7241 14.5966C86.0952 15.2151 86.59 15.3388 87.2085 15.3388C87.827 15.3388 88.3218 14.9677 88.5692 14.4729L88.8166 13.7307H93.3935C93.1461 16.4521 91.1669 18.3076 88.4455 18.555C87.0848 18.6787 85.8478 18.6787 84.6108 18.1839C82.7553 17.5654 81.5183 16.3284 80.8998 14.4729C80.2813 12.4937 80.2813 10.6382 80.8998 8.659C81.642 6.185 83.4975 4.948 85.9715 4.5769C87.0848 4.4532 88.3218 4.4532 89.4351 4.8243C91.7854 5.5665 93.0224 7.1746 93.5172 9.4012C93.6409 10.5145 93.6409 11.5041 93.6409 12.4937ZM85.6004 9.896H88.8166C88.8166 8.5353 88.1981 7.7931 87.0848 7.9168C86.0952 8.0405 85.4767 8.7827 85.6004 9.896ZM45.1505 4.8243H46.6349V2.22659C46.6349 1.73179 46.7586 1.6081 47.2534 1.4844L51.0881 0.6185V4.8243H53.191V8.5353H51.0881V13.7307C51.2118 14.5966 51.8303 14.9677 52.5725 14.844C52.6962 14.844 52.8199 14.844 53.0673 14.7203V17.0706C53.0673 18.1839 53.0673 18.1839 51.954 18.3076C50.8407 18.4313 49.7274 18.555 48.4904 18.3076C46.8823 17.9365 46.1401 16.9469 46.1401 15.3388V8.5353H45.0268C45.1505 7.422 45.1505 6.185 45.1505 4.8243ZM69.5194 18.3076V14.5966H70.6327V8.659H69.5194V4.948H74.7148C74.7148 5.5665 74.8385 6.3087 74.8385 7.0509C74.9622 6.9272 74.9622 6.8035 74.9622 6.6798C75.3333 5.5665 76.1992 4.948 77.3125 4.8243H79.0443C79.168 4.8243 79.2917 4.948 79.2917 5.0717V9.1538C78.6732 9.1538 77.931 9.0301 77.3125 9.1538C75.9518 9.4012 75.3333 10.1434 75.2096 11.5041V14.4729H76.694V18.1839C74.4674 18.3076 71.9934 18.3076 69.5194 18.3076Z" fill="black"/>
<path d="M104.324 0.132487C105.066 0.256187 105.808 0.256191 106.426 0.503591C109.272 1.24579 110.756 4.70939 109.272 7.30709C108.9 7.92559 108.406 8.29669 107.787 8.66779C107.54 8.79149 107.292 8.91519 106.921 9.16259C107.045 9.28629 107.169 9.28629 107.292 9.28629C109.272 9.90479 110.137 11.3892 110.261 13.2447C110.509 15.9661 108.777 17.9453 106.055 18.1927C105.189 18.3164 104.324 18.3164 103.581 18.3164H95.046V14.6054H96.6541V3.71979H95.046V0.00878906C98.2622 0.132489 101.231 0.132487 104.324 0.132487ZM101.602 11.0181V14.6054C101.602 14.7291 101.726 14.8528 101.85 14.8528H103.952C104.447 14.8528 104.942 14.6054 105.189 14.1106C105.808 12.9973 105.189 11.5129 103.952 11.2655C103.21 11.0181 102.468 11.0181 101.602 11.0181ZM101.602 7.55449C102.344 7.55449 102.963 7.55449 103.705 7.43079C104.571 7.30709 105.066 6.56489 105.066 5.69899C105.066 4.83309 104.571 4.09089 103.829 3.96719C103.087 3.84349 102.344 3.84349 101.602 3.84349V7.55449ZM146.876 8.79149H145.021C144.897 8.79149 144.773 8.91518 144.773 9.03888V13.7395C144.773 14.7291 145.392 15.2239 146.505 14.9765H146.753V17.9453C146.753 18.1927 146.753 18.3164 146.505 18.3164C145.145 18.5638 143.784 18.6875 142.299 18.4401C140.691 18.069 139.949 17.2031 139.949 15.595V8.66779H139.454C138.712 8.66779 138.836 8.79149 138.836 8.04929V4.95679H140.32V2.48279C140.32 1.61689 140.197 1.74058 141.062 1.61688C142.299 1.36948 143.413 1.12209 144.773 0.750987V4.95679H147C146.876 6.31749 146.876 7.55449 146.876 8.79149ZM132.28 10.1522V8.91518C132.28 8.17299 131.785 7.67818 131.166 7.67818C130.548 7.67818 129.929 8.17299 129.929 8.79149V9.28629H125.476C125.353 7.55449 126.218 6.07008 127.827 5.32788C130.177 4.33828 132.651 4.33829 135.001 5.45159C136.486 6.19379 137.228 7.30709 137.228 8.91518V14.4817H138.341V18.1927H132.775C132.775 17.6979 132.651 17.3268 132.651 16.7083C132.527 16.832 132.403 16.9557 132.403 17.0794C130.919 18.8112 128.198 18.8112 126.713 18.069C125.6 17.4505 125.105 16.3372 124.981 15.1002C124.858 12.3788 126.218 10.647 129.064 10.1522L132.032 9.90479C131.909 10.1522 132.032 10.1522 132.28 10.1522ZM132.28 12.5025H131.166C130.053 12.6262 129.558 13.4921 129.682 14.4817C129.806 15.3476 130.548 15.8424 131.414 15.4713C131.909 15.3476 132.156 14.9765 132.28 14.4817V12.5025ZM124.363 12.6262H116.075C116.075 13.4921 116.075 14.2343 116.57 14.8528C116.941 15.3476 117.436 15.4713 118.054 15.4713C118.673 15.4713 119.044 15.1002 119.291 14.6054L119.539 13.8632H124.116C123.992 15.3476 123.373 16.5846 122.136 17.4505C120.652 18.5638 119.044 18.8112 117.312 18.6875C116.57 18.6875 115.951 18.5638 115.209 18.3164C113.354 17.8216 112.24 16.5846 111.622 14.8528C111.003 12.7499 110.88 10.647 111.746 8.54409C112.611 6.31749 114.343 5.08049 116.694 4.83309C117.807 4.70939 119.044 4.83309 120.157 5.08049C122.507 5.82269 123.744 7.55449 124.239 9.90479C124.239 10.7707 124.363 11.6366 124.363 12.6262ZM119.539 10.1522C119.539 9.41 119.415 8.66779 118.796 8.29669C118.178 7.92559 117.559 7.92558 116.941 8.42038C116.446 8.79148 116.322 9.41 116.322 10.1522H119.539Z" fill="#FF0113"/>
</svg>
