<svg width="100" height="68" viewBox="0 0 100 68" fill="none" xmlns="http://www.w3.org/2000/svg">
<g clip-path="url(#clip0_40_72)">
<path d="M50 0.00854492H0V16.4635H16.5517V50.4018H33.4483V16.4635H50V0.00854492ZM66.5517 0.00854492H100V16.4635H66.5517V0.00854492ZM66.5517 33.0723V16.4635H50V50.4018H100V33.0967L66.5517 33.0723Z" fill="#0A9E01"/>
<path d="M6.89655 57.2576V67.5419H4.13793V57.2576H0V55.2007H10.3448V57.2576H6.89655ZM18.0931 63.4282H12.3562C12.4472 64.7994 13.4159 65.4281 14.3297 65.4281C15.0241 65.4281 15.6083 65.2749 15.9741 64.856L17.7645 66.3955C16.9972 67.376 15.6083 67.9649 14.3297 67.9649C11.5707 67.9649 9.81655 66.0342 9.81655 63.0189C9.81655 60.0943 11.6617 58.0478 14.0924 58.0478C16.6507 58.0478 18.13 60.1008 18.13 62.8259C18.13 63.1909 18.1117 63.4282 18.0931 63.4282ZM13.9645 60.349C13.0507 60.349 12.4845 60.6857 12.3931 62.0569H15.6821C15.609 60.6857 15.0972 60.349 13.9645 60.349ZM24.141 67.9917C21.6376 67.9917 19.6466 65.9571 19.6466 63.0326C19.6466 60.108 21.5835 58.0553 24.2507 58.0553C26.0779 58.0553 27.2472 58.9456 28.0514 60.1629L26.389 61.8338C25.8224 61.0343 25.2197 60.4711 24.1966 60.4711C22.9903 60.4711 22.2048 61.47 22.2048 63.0319C22.2048 64.5584 22.9903 65.5759 24.1966 65.5759C25.1828 65.5759 25.8041 65.1402 26.4624 64.3589L28.07 65.8662C27.1376 67.1017 26.041 67.9917 24.141 67.9917ZM35.5172 67.5419V62.6328C35.5172 60.926 35.1886 60.4173 34.1469 60.4173C33.1052 60.4173 32.7586 60.9263 32.7586 62.5794V67.5426H30V55.8044L32.7586 54.55V58.8924C32.7586 58.4382 33.8638 58.057 34.8686 58.057C37.3172 58.057 38.2759 59.7279 38.2759 62.4162V67.5426L35.5172 67.5419Z" fill="#0A9E01"/>
<path d="M48.35 58.7821C47.8931 57.9106 47.1624 57.4016 46.0117 57.4016C44.0931 57.4016 42.9972 59.0731 42.9972 61.434C42.9972 63.7226 44.1117 65.4665 46.03 65.4665C47.1821 65.4665 47.8579 64.9763 48.5334 63.8502L50.6896 65.1213C49.8131 66.9197 48.2772 67.9913 45.9576 67.9913C42.6138 67.9913 40.3658 65.4473 40.3658 61.4334C40.3658 57.5644 42.7041 54.8761 46.0479 54.8761C48.4603 54.8761 49.9221 56.0385 50.7252 57.6909L48.35 58.7821ZM57.7417 61.1797C57.3396 60.816 56.9327 60.5619 56.3665 60.5619C55.3807 60.5619 54.8276 60.9808 54.8276 62.6325V67.5416H52.0689V57.9429H54.8276V58.8914C55.5172 58.4372 55.8193 58.056 56.7148 58.056C57.5365 58.056 58.1138 58.3823 58.4424 58.7279L57.7417 61.1797ZM65.8621 67.4565V67.1562C65.1724 67.6101 64.7569 67.9917 63.7521 67.9917C61.3031 67.9917 60.3448 66.3201 60.3448 63.6325V57.9432H62.4138V63.4138C62.4138 65.1213 63.0872 65.63 64.1293 65.63C65.1693 65.63 65.8621 65.1206 65.8621 63.4676V57.9429H68.6207V67.5416H65.7538L65.8621 67.4565ZM75.862 67.5419V62.6328C75.862 60.926 75.7058 60.4173 74.6638 60.4173C73.6238 60.4173 73.4483 60.9263 73.4483 62.5794V67.5426H70.6896V57.9439H73.4483V58.8924C73.4483 58.4382 74.381 58.057 75.3858 58.057C77.8348 58.057 78.6207 59.7279 78.6207 62.4162V67.5426L75.862 67.5419ZM85.2938 67.9917C82.7903 67.9917 80.7996 65.9571 80.7996 63.0326C80.7996 60.108 82.7365 58.0553 85.4038 58.0553C87.2317 58.0553 88.4007 58.9456 89.2041 60.1629L87.5427 61.8338C86.9755 61.0343 86.3734 60.4711 85.3507 60.4711C84.1438 60.4711 83.3579 61.47 83.3579 63.0319C83.3579 64.5584 84.1438 65.5759 85.3507 65.5759C86.3358 65.5759 86.9583 65.1402 87.6162 64.3589L89.2238 65.8662C88.2896 67.1017 87.1941 67.9917 85.2938 67.9917ZM96.5517 67.7922V62.6328C96.5517 60.926 96.2231 60.4173 95.181 60.4173C94.141 60.4173 93.7931 60.9263 93.7931 62.5794V67.5426H91.0345V55.8044L93.7931 54.55V58.8924C93.7931 58.4382 94.8983 58.057 95.9031 58.057C98.352 58.057 99.3103 59.7279 99.3103 62.4162V67.5426H96.6165L96.5517 67.7922Z" fill="#343C34"/>
</g>
<defs>
<clipPath id="clip0_40_72">
<rect width="100" height="68" fill="white"/>
</clipPath>
</defs>
</svg>
